<svg version="1.1" id="Layer_1" xmlns="http://www.w3.org/2000/svg" xmlns:xlink="http://www.w3.org/1999/xlink" x="0px" y="0px"
	 width="100%" viewBox="0 0 225 225" enable-background="new 0 0 225 225" xml:space="preserve">
<path fill="#EDEDED" opacity="1.000000" stroke="none" 
	d="
M1.000000,114.000000 
	C1.000000,109.310745 1.000000,104.621490 1.464672,99.470169 
	C6.287653,99.004097 10.645964,99.000084 15.002287,99.462524 
	C15.000691,102.903831 15.176076,105.891777 14.954836,108.850067 
	C14.707731,112.154205 16.049015,113.143257 19.245548,113.061508 
	C31.055300,112.759438 28.732357,114.460884 28.995789,103.457970 
	C29.031378,101.971436 28.997229,100.483238 29.460535,99.001450 
	C34.284409,99.003906 38.643120,99.000732 43.000320,99.463852 
	C42.999638,113.147049 42.999641,113.147240 56.063759,112.992958 
	C56.392750,112.989075 56.721535,112.967667 57.029114,113.425598 
	C57.005356,118.597740 57.002903,123.298721 56.545555,127.995544 
	C51.725754,127.665550 47.360847,127.339714 42.997826,126.547043 
	C43.000015,123.601089 42.789356,121.099579 43.049549,118.648041 
	C43.450394,114.871307 41.919800,113.803131 38.259926,113.921135 
	C27.279285,114.275169 29.212799,112.616020 29.005072,123.045601 
	C28.972166,124.697662 29.002903,126.350990 28.539314,127.998306 
	C23.714603,127.993355 19.354797,127.993851 14.997495,127.997177 
	C15.000000,128.000000 15.005774,128.005157 15.004275,127.538620 
	C14.994766,113.966225 14.994766,113.966179 1.985613,113.991402 
	C1.657071,113.992035 1.328537,113.997032 1.000000,114.000000 
z"/>
<path fill="#EEEEEE" opacity="1.000000" stroke="none" 
	d="
M226.000000,113.000000 
	C226.000000,117.689255 226.000000,122.378510 225.535324,127.530319 
	C220.712311,127.996712 216.353958,128.000549 211.997375,127.537888 
	C211.998672,124.096695 211.823120,121.108910 212.044418,118.150826 
	C212.291595,114.846870 210.950577,113.857826 207.754196,113.939529 
	C195.944321,114.241440 198.268494,112.540932 198.005096,123.542809 
	C197.969513,125.029251 198.003113,126.517365 197.539520,127.999374 
	C192.714981,127.997383 188.355576,128.000717 183.997162,127.539101 
	C184.000015,122.706261 184.001923,118.338387 184.001801,113.735214 
	C183.999756,113.499916 183.990204,113.029404 184.457184,113.022385 
	C198.005249,112.990402 198.005264,112.990402 197.998947,99.981964 
	C197.998795,99.653351 197.996857,99.324738 198.460632,99.001205 
	C203.285416,99.005867 207.645294,99.005447 212.002594,99.002518 
	C212.000000,99.000000 211.994843,98.994720 211.996399,99.461273 
	C212.006592,113.030342 212.006592,113.030403 225.014435,113.007812 
	C225.342957,113.007248 225.671478,113.002693 226.000000,113.000000 
z"/>
<path fill="#EDEDED" opacity="1.000000" stroke="none" 
	d="
M99.000000,1.000000 
	C103.689255,1.000000 108.378510,1.000000 113.529396,1.466000 
	C113.983337,15.016054 113.983337,15.016054 127.008507,15.428909 
	C127.339294,20.241522 127.670563,24.621925 127.537018,29.000769 
	C122.705818,28.997751 118.339439,28.996296 113.735268,28.997404 
	C113.497475,28.999968 113.021904,29.005798 113.019073,28.539433 
	C112.991730,14.992272 112.991730,14.992247 99.981850,15.000463 
	C99.653252,15.000670 99.324646,15.002961 99.001595,14.539388 
	C99.004761,9.716331 99.002380,5.358165 99.000000,1.000000 
z"/>
<path fill="#E9EDEB" opacity="1.000000" stroke="none" 
	d="
M226.000000,29.000000 
	C226.000000,33.356899 226.000000,37.713799 225.533997,42.534237 
	C212.005341,42.998909 212.005386,42.998909 211.994080,56.018612 
	C211.993790,56.347130 211.991852,56.675652 211.995453,57.002357 
	C212.000214,57.000542 212.003418,56.991066 211.546814,56.992973 
	C208.025269,56.982159 204.960312,56.969433 201.945160,56.603233 
	C207.570358,46.699371 213.145767,37.148987 218.978378,27.936501 
	C221.490402,28.516266 223.745193,28.758133 226.000000,29.000000 
z"/>
<path fill="#EEEEEE" opacity="1.000000" stroke="none" 
	d="
M128.000000,226.000000 
	C123.310745,226.000000 118.621490,226.000000 113.470154,225.535339 
	C113.003639,220.712570 112.999191,216.354477 113.461456,211.997986 
	C118.620132,211.998734 123.312096,211.997864 127.998917,212.461823 
	C127.995842,217.284424 127.997917,221.642212 128.000000,226.000000 
z"/>
<path fill="#FEFEFE" opacity="1.000000" stroke="none" 
	d="
M1.000000,156.000000 
	C1.000000,151.643097 1.000000,147.286194 1.464676,142.461426 
	C6.287650,141.997223 10.645947,142.000885 15.002023,142.002136 
	C14.999801,141.999695 14.995458,141.995789 14.997326,142.460876 
	C15.001324,147.285843 15.003452,151.645721 14.540585,156.003265 
	C9.717059,156.000610 5.358530,156.000305 1.000000,156.000000 
z"/>
<path fill="#EDEDED" opacity="1.000000" stroke="none" 
	d="
M226.000000,170.000000 
	C226.000000,174.356903 226.000000,178.713806 225.535309,183.534576 
	C220.712112,184.000671 216.353607,184.002914 211.996750,183.539917 
	C211.997711,178.715225 211.997025,174.355789 212.461212,169.997070 
	C217.284073,169.998550 221.642029,169.999268 226.000000,170.000000 
z"/>
<path fill="#EDEDED" opacity="1.000000" stroke="none" 
	d="
M226.000000,142.000000 
	C226.000000,146.356903 226.000000,150.713806 225.535309,155.532837 
	C220.712326,155.998093 216.354034,156.001221 211.997406,155.539185 
	C211.997864,150.714401 211.996628,146.354767 212.460327,141.993683 
	C217.283508,141.994827 221.641754,141.997421 226.000000,142.000000 
z"/>
<path fill="#EDEDED" opacity="1.000000" stroke="none" 
	d="
M1.000000,156.464645 
	C5.358530,156.000305 9.717059,156.000610 14.537571,156.000259 
	C14.999554,155.999588 14.994361,155.994385 14.996597,156.459610 
	C15.000378,161.284439 15.001920,165.644058 14.538607,170.000061 
	C9.715833,169.997650 5.357916,169.998825 1.000000,170.000000 
	C1.000000,165.643097 1.000000,161.286194 1.000000,156.464645 
z"/>
<path fill="#FEFEFE" opacity="1.000000" stroke="none" 
	d="
M1.000000,170.464645 
	C5.357916,169.998825 9.715833,169.997650 14.536816,169.998230 
	C14.999882,170.000000 14.996611,169.996674 14.998148,170.461670 
	C15.001518,175.286179 15.003351,179.645691 14.540212,184.003128 
	C9.716826,184.000717 5.358413,184.000366 1.000000,184.000000 
	C1.000000,179.643097 1.000000,175.286194 1.000000,170.464645 
z"/>
<path fill="#FEFEFE" opacity="1.000000" stroke="none" 
	d="
M211.995728,156.004333 
	C216.354034,156.001221 220.712326,155.998093 225.535309,155.997498 
	C226.000000,160.356903 226.000000,164.713806 226.000000,169.535355 
	C221.642029,169.999268 217.284073,169.998550 212.463043,169.998901 
	C212.000000,170.000000 212.003662,170.003662 212.001541,169.538589 
	C212.001053,164.714249 212.002701,160.354996 212.002289,155.997742 
	C212.000229,155.999756 211.995728,156.004333 211.995728,156.004333 
z"/>
<path fill="#FEFEFE" opacity="1.000000" stroke="none" 
	d="
M85.000000,226.000000 
	C80.643097,226.000000 76.286201,226.000000 71.465431,225.535309 
	C70.999168,220.711884 70.996780,216.353149 71.459671,211.995712 
	C76.284981,211.996277 80.645004,211.995575 85.006615,212.459839 
	C85.005470,217.283203 85.002731,221.641602 85.000000,226.000000 
z"/>
<path fill="#EDEDED" opacity="1.000000" stroke="none" 
	d="
M226.000000,198.000000 
	C226.000000,202.356903 226.000000,206.713806 225.535339,211.534851 
	C220.712036,211.997559 216.353378,211.996155 211.997375,211.997375 
	C212.000000,212.000000 212.005264,212.005264 212.003357,211.540070 
	C211.999374,206.714966 211.997269,202.355057 212.460114,197.996704 
	C217.283386,197.998825 221.641693,197.999405 226.000000,198.000000 
z"/>
<path fill="#EDEDED" opacity="1.000000" stroke="none" 
	d="
M15.000000,226.000000 
	C10.409401,226.000000 5.818802,226.000000 1.000000,226.000000 
	C1.000000,221.651093 1.000000,217.299683 1.464661,212.474167 
	C6.287844,211.998428 10.646366,211.996780 15.003346,212.460083 
	C15.001203,217.283371 15.000602,221.641678 15.000000,226.000000 
z"/>
<path fill="#FEFEFE" opacity="1.000000" stroke="none" 
	d="
M15.464651,226.000000 
	C15.000602,221.641678 15.001203,217.283371 15.000743,212.462708 
	C14.999681,212.000381 14.995088,212.004929 15.460246,212.002762 
	C20.285376,211.998642 24.645346,211.996674 29.003941,212.459702 
	C29.001711,217.283127 29.000856,221.641556 29.000000,226.000000 
	C24.643101,226.000000 20.286201,226.000000 15.464651,226.000000 
z"/>
<path fill="#EDEDED" opacity="1.000000" stroke="none" 
	d="
M29.464651,226.000000 
	C29.000856,221.641556 29.001711,217.283127 29.001083,212.462555 
	C28.999601,212.000412 28.994650,212.005325 29.459850,212.003448 
	C34.284988,211.999359 38.644928,211.997147 43.003731,212.459930 
	C43.001732,217.283264 43.000866,221.641632 43.000000,226.000000 
	C38.643101,226.000000 34.286201,226.000000 29.464651,226.000000 
z"/>
<path fill="#FEFEFE" opacity="1.000000" stroke="none" 
	d="
M43.464653,226.000000 
	C43.000866,221.641632 43.001732,217.283264 43.001152,212.462646 
	C42.999702,212.000397 42.994942,212.004898 43.460114,212.002777 
	C48.285378,211.998444 52.645470,211.996216 57.006168,212.459015 
	C57.004517,217.282700 57.002258,221.641342 57.000000,226.000000 
	C52.643101,226.000000 48.286201,226.000000 43.464653,226.000000 
z"/>
<path fill="#EDEDED" opacity="1.000000" stroke="none" 
	d="
M57.464653,226.000000 
	C57.002258,221.641342 57.004517,217.282700 57.003151,212.462234 
	C56.999523,212.000427 56.993938,212.005569 57.459213,212.004120 
	C62.284863,212.003662 66.645241,212.004639 71.003021,212.003006 
	C71.000427,212.000381 70.994392,211.994431 70.994392,211.994431 
	C70.996780,216.353149 70.999168,220.711884 71.000778,225.535309 
	C66.643097,226.000000 62.286201,226.000000 57.464653,226.000000 
z"/>
<path fill="#EEEEEE" opacity="1.000000" stroke="none" 
	d="
M85.464645,226.000000 
	C85.002731,221.641602 85.005470,217.283203 85.003929,212.462585 
	C84.999657,212.000381 84.994820,212.005081 85.460007,212.003357 
	C90.284988,211.999725 94.644783,211.997787 99.006355,212.460770 
	C99.005424,217.283798 99.002716,221.641891 99.000000,226.000000 
	C94.643097,226.000000 90.286201,226.000000 85.464645,226.000000 
z"/>
<path fill="#FEFEFE" opacity="1.000000" stroke="none" 
	d="
M99.464645,226.000000 
	C99.002716,221.641891 99.005424,217.283798 99.003983,212.462845 
	C98.999840,212.000000 98.996643,212.003662 99.461639,212.000336 
	C104.285461,211.999329 108.644287,212.001678 113.001656,212.001984 
	C113.000198,211.999939 112.994751,211.996384 112.994751,211.996384 
	C112.999191,216.354477 113.003639,220.712570 113.004044,225.535339 
	C108.643097,226.000000 104.286201,226.000000 99.464645,226.000000 
z"/>
<path fill="#FEFEFE" opacity="1.000000" stroke="none" 
	d="
M128.464645,226.000000 
	C127.997917,221.642212 127.995842,217.284424 127.996773,212.463318 
	C127.999779,212.000000 127.997253,212.003708 128.462189,212.002045 
	C133.286438,211.998428 137.645752,211.996490 142.000488,212.459534 
	C141.997269,217.283005 141.998627,221.641510 142.000000,226.000000 
	C137.643097,226.000000 133.286194,226.000000 128.464645,226.000000 
z"/>
<path fill="#EDEDED" opacity="1.000000" stroke="none" 
	d="
M142.464630,226.000000 
	C141.998627,221.641510 141.997269,217.283005 141.997772,212.462463 
	C141.999634,212.000412 141.994568,212.005005 142.459778,212.003052 
	C147.284775,211.999313 151.644547,211.997513 156.000366,212.460632 
	C155.997604,217.283691 155.998795,221.641846 156.000000,226.000000 
	C151.643097,226.000000 147.286194,226.000000 142.464630,226.000000 
z"/>
<path fill="#FEFEFE" opacity="1.000000" stroke="none" 
	d="
M156.464630,226.000000 
	C155.998795,221.641846 155.997604,217.283691 155.998077,212.462891 
	C155.999741,212.000244 155.995728,212.004333 156.460831,212.002533 
	C161.285950,211.998642 165.645950,211.996582 170.003647,212.459503 
	C170.000885,217.283005 170.000443,221.641495 170.000000,226.000000 
	C165.643097,226.000000 161.286194,226.000000 156.464630,226.000000 
z"/>
<path fill="#EDEDED" opacity="1.000000" stroke="none" 
	d="
M170.464645,226.000000 
	C170.000443,221.641495 170.000885,217.283005 170.000458,212.462448 
	C169.999573,212.000397 169.994492,212.005981 170.459717,212.003784 
	C175.285004,211.999420 179.645065,211.997253 184.003235,212.460052 
	C184.000885,217.283340 184.000443,221.641678 184.000000,226.000000 
	C179.643097,226.000000 175.286194,226.000000 170.464645,226.000000 
z"/>
<path fill="#FEFEFE" opacity="1.000000" stroke="none" 
	d="
M184.464645,226.000000 
	C184.000443,221.641678 184.000885,217.283340 184.000458,212.462708 
	C183.999603,212.000381 183.995041,212.005157 184.460205,212.003021 
	C189.285233,212.002243 193.645065,212.003586 198.002625,212.002625 
	C198.000351,212.000351 197.995117,211.995132 197.996613,212.460083 
	C197.998718,217.283371 197.999359,221.641678 198.000000,226.000000 
	C193.643097,226.000000 189.286194,226.000000 184.464645,226.000000 
z"/>
<path fill="#EDEDED" opacity="1.000000" stroke="none" 
	d="
M198.464645,226.000000 
	C197.999359,221.641678 197.998718,217.283371 198.461823,212.461914 
	C203.285446,212.000931 207.645355,212.003098 212.005264,212.005249 
	C212.005264,212.005264 212.000000,212.000000 211.999084,212.462601 
	C211.998764,217.283463 211.999374,221.641739 212.000000,226.000000 
	C207.643097,226.000000 203.286194,226.000000 198.464645,226.000000 
z"/>
<path fill="#FEFEFE" opacity="1.000000" stroke="none" 
	d="
M212.474121,226.000000 
	C211.999374,221.641739 211.998764,217.283463 211.996445,212.459961 
	C216.353378,211.996155 220.712036,211.997559 225.535339,211.999481 
	C226.000000,216.590591 226.000000,221.181198 226.000000,226.000000 
	C221.651093,226.000000 217.299683,226.000000 212.474121,226.000000 
z"/>
<path fill="#FEFEFE" opacity="1.000000" stroke="none" 
	d="
M226.000000,141.535355 
	C221.641754,141.997421 217.283508,141.994827 212.462799,141.996307 
	C212.000336,142.000351 212.004944,142.004715 212.002808,141.539581 
	C212.001877,136.714859 212.003082,132.355286 212.002289,127.997757 
	C212.000259,127.999794 211.995621,128.004395 211.995621,128.004395 
	C216.353958,128.000549 220.712311,127.996712 225.535324,127.996437 
	C226.000000,132.356903 226.000000,136.713806 226.000000,141.535355 
z"/>
<path fill="#EDEDED" opacity="1.000000" stroke="none" 
	d="
M1.000000,184.464645 
	C5.358413,184.000366 9.716826,184.000717 14.537434,184.000336 
	C14.999628,183.999603 14.994761,183.994781 14.996832,184.460022 
	C14.997475,189.285309 14.996048,193.645340 14.997117,198.002869 
	C14.999613,198.000381 15.005329,197.994675 14.540346,197.996063 
	C9.716908,197.998291 5.358454,197.999146 1.000000,198.000000 
	C1.000000,193.643097 1.000000,189.286194 1.000000,184.464645 
z"/>
<path fill="#FEFEFE" opacity="1.000000" stroke="none" 
	d="
M226.000000,197.535355 
	C221.641693,197.999405 217.283386,197.998825 212.462723,197.999298 
	C212.000366,198.000366 212.004883,198.004883 212.002716,197.539719 
	C212.002075,192.714722 212.003616,188.354874 212.002747,183.997330 
	C212.000351,183.999619 211.995102,184.005142 211.995102,184.005157 
	C216.353607,184.002914 220.712112,184.000671 225.535309,183.999222 
	C226.000000,188.356903 226.000000,192.713806 226.000000,197.535355 
z"/>
<path fill="#FEFEFE" opacity="1.000000" stroke="none" 
	d="
M1.000000,198.464645 
	C5.358454,197.999146 9.716908,197.998291 14.538654,198.461319 
	C14.999660,203.285110 14.997374,207.645020 14.995088,212.004929 
	C14.995088,212.004929 14.999681,212.000381 15.002285,211.997757 
	C10.646366,211.996780 6.287844,211.998428 1.464661,212.000031 
	C1.000000,207.643097 1.000000,203.286194 1.000000,198.464645 
z"/>
<path fill="#EDEDED" opacity="1.000000" stroke="none" 
	d="
M184.000000,1.000000 
	C188.356903,1.000000 192.713806,1.000000 197.534836,1.464676 
	C198.000854,6.287313 198.002731,10.645274 197.539444,15.001288 
	C192.714645,15.000678 188.355026,15.002014 183.996490,14.538492 
	C183.998383,9.715755 183.999191,5.357877 184.000000,1.000000 
z"/>
<path fill="#FEFEFE" opacity="1.000000" stroke="none" 
	d="
M15.004274,98.996063 
	C10.645964,99.000084 6.287653,99.004097 1.464672,99.004059 
	C1.000000,94.643097 1.000000,90.286201 1.464685,85.467117 
	C6.287882,85.001617 10.646394,84.998291 15.003359,85.460190 
	C14.999884,90.285042 14.997954,94.644676 14.997898,99.002258 
	C14.999773,99.000206 15.004274,98.996063 15.004274,98.996063 
z"/>
<path fill="#FEFEFE" opacity="1.000000" stroke="none" 
	d="
M226.000000,71.000000 
	C226.000000,75.356903 226.000000,79.713799 225.535324,84.538582 
	C220.712357,85.002800 216.354050,84.999138 211.998001,84.997849 
	C212.000244,85.000221 212.004486,85.004173 212.002625,84.539047 
	C212.001694,79.714996 212.002640,75.356071 212.001801,70.998474 
	C212.000000,70.999802 211.997055,71.003426 212.461884,71.002884 
	C217.284485,71.001564 221.642242,71.000778 226.000000,71.000000 
z"/>
<path fill="#EDEDED" opacity="1.000000" stroke="none" 
	d="
M15.004905,84.994965 
	C10.646394,84.998291 6.287882,85.001617 1.464685,85.002472 
	C1.000000,80.643097 1.000000,76.286201 1.464680,71.467148 
	C6.287675,71.001869 10.645989,70.998741 15.002629,71.460770 
	C14.998955,76.285591 14.996954,80.645241 14.997324,85.002625 
	C14.999695,85.000343 15.004905,84.994965 15.004905,84.994965 
z"/>
<path fill="#EDEDED" opacity="1.000000" stroke="none" 
	d="
M226.000000,70.535355 
	C221.642242,71.000778 217.284485,71.001564 212.463196,70.537827 
	C212.000900,65.712555 212.002151,61.351810 212.003418,56.991066 
	C212.003418,56.991066 212.000214,57.000542 212.461121,57.003231 
	C217.281357,57.003944 221.640671,57.001972 226.000000,57.000000 
	C226.000000,61.356899 226.000000,65.713799 226.000000,70.535355 
z"/>
<path fill="#FEFEFE" opacity="1.000000" stroke="none" 
	d="
M15.004304,70.995621 
	C10.645989,70.998741 6.287675,71.001869 1.464680,71.002495 
	C1.000000,66.643097 1.000000,62.286201 1.464706,57.464996 
	C6.288570,56.998589 10.647728,56.996490 15.005677,57.459675 
	C15.001607,62.284664 14.998745,66.644371 14.997854,71.002136 
	C14.999825,71.000198 15.004304,70.995621 15.004304,70.995621 
z"/>
<path fill="#EDEDED" opacity="1.000000" stroke="none" 
	d="
M15.006886,56.994392 
	C10.647728,56.996490 6.288570,56.998589 1.464706,57.000343 
	C1.000000,52.643101 1.000000,48.286201 1.464656,43.466049 
	C6.286492,43.000698 10.643672,42.998596 14.998972,43.461548 
	C14.997584,48.285545 14.998075,52.644485 14.999367,57.001564 
	C15.000166,56.999695 15.006886,56.994396 15.006886,56.994392 
z"/>
<path fill="#EDEDED" opacity="1.000000" stroke="none" 
	d="
M212.000000,1.000000 
	C216.590591,1.000000 221.181198,1.000000 226.000000,1.000000 
	C226.000000,5.348905 226.000000,9.700325 225.535339,14.524679 
	C220.712357,14.999204 216.354050,15.000793 211.997101,14.537582 
	C211.998993,9.715190 211.999496,5.357595 212.000000,1.000000 
z"/>
<path fill="#FEFEFE" opacity="1.000000" stroke="none" 
	d="
M211.535355,1.000000 
	C211.999496,5.357595 211.998993,9.715190 211.999237,14.536419 
	C212.000000,15.000054 212.001831,14.996533 211.536957,14.998308 
	C206.713715,14.998713 202.355331,14.997345 197.998474,14.997968 
	C198.000000,14.999960 198.004623,15.003235 198.004608,15.003235 
	C198.002731,10.645274 198.000854,6.287313 197.999481,1.464676 
	C202.356903,1.000000 206.713806,1.000000 211.535355,1.000000 
z"/>
<path fill="#FEFEFE" opacity="1.000000" stroke="none" 
	d="
M226.000000,56.535347 
	C221.640671,57.001972 217.281357,57.003944 212.456360,57.005043 
	C211.991852,56.675652 211.993790,56.347130 211.994080,56.018612 
	C212.005386,42.998909 212.005341,42.998909 225.533997,42.998886 
	C226.000000,47.356899 226.000000,51.713799 226.000000,56.535347 
z"/>
<path fill="#FEFEFE" opacity="1.000000" stroke="none" 
	d="
M183.535355,1.000000 
	C183.999191,5.357877 183.998383,9.715755 183.998932,14.536764 
	C184.000290,14.999895 184.003311,14.995399 183.538300,14.997356 
	C178.713638,15.001422 174.353973,15.003529 169.993713,14.540632 
	C169.995407,9.717086 169.997711,5.358543 170.000000,1.000000 
	C174.356903,1.000000 178.713806,1.000000 183.535355,1.000000 
z"/>
<path fill="#EDEDED" opacity="1.000000" stroke="none" 
	d="
M169.535370,1.000000 
	C169.997711,5.358543 169.995407,9.717086 169.996765,14.537580 
	C170.000412,14.999532 170.005707,14.994272 169.540466,14.995762 
	C164.715607,14.999397 160.355972,15.001541 155.996948,14.538805 
	C155.998383,9.715949 155.999191,5.357975 156.000000,1.000000 
	C160.356903,1.000000 164.713806,1.000000 169.535370,1.000000 
z"/>
<path fill="#FEFEFE" opacity="1.000000" stroke="none" 
	d="
M155.535355,1.000000 
	C155.999191,5.357975 155.998383,9.715949 155.998779,14.536874 
	C156.000000,14.999825 156.003662,14.996231 155.538635,14.998395 
	C150.714920,14.998997 146.356232,14.997436 141.998779,14.997914 
	C142.000000,14.999955 142.004272,15.002595 141.999725,14.537800 
	C141.996780,9.715337 141.998383,5.357668 142.000000,1.000000 
	C146.356903,1.000000 150.713806,1.000000 155.535355,1.000000 
z"/>
<path fill="#EEEEEE" opacity="1.000000" stroke="none" 
	d="
M141.535339,1.000000 
	C141.998383,5.357668 141.996780,9.715337 141.534546,14.535978 
	C136.711853,15.000155 132.349762,15.001360 127.988602,14.537754 
	C127.993019,9.715297 127.996513,5.357648 128.000000,1.000000 
	C132.356903,1.000000 136.713806,1.000000 141.535339,1.000000 
z"/>
<path fill="#FEFEFE" opacity="1.000000" stroke="none" 
	d="
M127.535355,1.000000 
	C127.996513,5.357648 127.993019,9.715297 127.744019,14.535945 
	C127.498497,14.998944 127.008987,14.996701 127.008987,14.996701 
	C113.983337,15.016054 113.983337,15.016054 113.995514,1.466000 
	C118.356903,1.000000 122.713799,1.000000 127.535355,1.000000 
z"/>
<path fill="#FEFEFE" opacity="1.000000" stroke="none" 
	d="
M98.535347,1.000000 
	C99.002380,5.358165 99.004761,9.716331 99.003555,14.537210 
	C98.999969,14.999925 99.003304,14.996889 98.538315,14.999792 
	C93.714188,15.004498 89.355049,15.006302 84.999985,14.542961 
	C85.002708,9.718545 85.001350,5.359272 85.000000,1.000000 
	C89.356903,1.000000 93.713799,1.000000 98.535347,1.000000 
z"/>
<path fill="#EDEDED" opacity="1.000000" stroke="none" 
	d="
M84.535347,1.000000 
	C85.001350,5.359272 85.002708,9.718545 85.002243,14.538503 
	C85.000420,14.999188 85.008163,14.995834 84.542679,14.997471 
	C79.716660,15.000791 75.356125,15.002474 70.999535,14.539259 
	C71.002319,9.716241 71.001160,5.358120 71.000000,1.000000 
	C75.356903,1.000000 79.713799,1.000000 84.535347,1.000000 
z"/>
<path fill="#FEFEFE" opacity="1.000000" stroke="none" 
	d="
M70.535355,1.000000 
	C71.001160,5.358120 71.002319,9.716241 71.001854,14.537075 
	C71.000229,14.999787 71.004128,14.995620 70.539047,14.997461 
	C65.714012,15.001346 61.354057,15.003388 56.996407,14.540445 
	C56.999134,9.716973 56.999569,5.358487 57.000000,1.000000 
	C61.356899,1.000000 65.713799,1.000000 70.535355,1.000000 
z"/>
<path fill="#EDEDED" opacity="1.000000" stroke="none" 
	d="
M56.535347,1.000000 
	C56.999569,5.358487 56.999134,9.716973 56.999535,14.537562 
	C57.000362,14.999665 57.005146,14.994416 56.539970,14.996178 
	C51.714867,14.999928 47.354939,15.001919 42.996933,14.539017 
	C42.999241,9.716083 42.999619,5.358041 43.000000,1.000000 
	C47.356899,1.000000 51.713799,1.000000 56.535347,1.000000 
z"/>
<path fill="#FEFEFE" opacity="1.000000" stroke="none" 
	d="
M42.535347,1.000000 
	C42.999619,5.358041 42.999241,9.716083 42.999542,14.537006 
	C43.000229,14.999887 43.003578,14.995487 42.538555,14.997645 
	C37.714012,15.001758 33.354496,15.003712 28.996632,14.540663 
	C28.998859,9.717107 28.999430,5.358553 29.000000,1.000000 
	C33.356899,1.000000 37.713799,1.000000 42.535347,1.000000 
z"/>
<path fill="#EDEDED" opacity="1.000000" stroke="none" 
	d="
M28.535349,1.000000 
	C28.999430,5.358553 28.998859,9.717107 28.999277,14.537692 
	C29.000265,14.999724 29.005323,14.995574 28.540115,14.996510 
	C23.713837,14.997203 19.352766,14.996961 14.995707,14.998037 
	C14.999720,14.999356 15.004334,15.008604 15.003252,14.543415 
	C15.001447,9.718818 15.000723,5.359409 15.000000,1.000000 
	C19.356899,1.000000 23.713799,1.000000 28.535349,1.000000 
z"/>
<path fill="#FEFEFE" opacity="1.000000" stroke="none" 
	d="
M14.525872,1.000000 
	C15.000723,5.359409 15.001447,9.718818 14.538124,14.542059 
	C9.716052,15.003928 5.358026,15.001964 1.000000,15.000000 
	C1.000000,10.409401 1.000000,5.818802 1.000000,1.000000 
	C5.348905,1.000000 9.700325,1.000000 14.525872,1.000000 
z"/>
<path fill="#EEEEEE" opacity="1.000000" stroke="none" 
	d="
M211.995758,84.995476 
	C216.354050,84.999138 220.712357,85.002800 225.535324,85.003235 
	C226.000000,89.356903 226.000000,93.713799 225.535339,98.538147 
	C220.712082,99.001968 216.353455,98.998344 211.994843,98.994720 
	C211.994843,98.994720 212.000000,99.000000 212.000641,98.537292 
	C211.999420,93.714882 211.997589,89.355179 211.995758,84.995476 
z"/>
<path fill="#EEEEEE" opacity="1.000000" stroke="none" 
	d="
M15.004245,142.004547 
	C10.645947,142.000885 6.287650,141.997223 1.464676,141.996780 
	C1.000000,137.643097 1.000000,133.286194 1.464657,128.461868 
	C6.288134,127.998016 10.646954,128.001587 15.005774,128.005157 
	C15.005774,128.005157 15.000000,128.000000 14.999401,128.462463 
	C15.000616,133.284805 15.002431,137.644669 15.004245,142.004547 
z"/>
<path fill="#FEFEFE" opacity="1.000000" stroke="none" 
	d="
M15.004275,127.538620 
	C10.646954,128.001587 6.288134,127.998016 1.464657,127.997223 
	C1.000000,123.643097 1.000000,119.286201 1.000000,114.464645 
	C1.328537,113.997032 1.657071,113.992035 1.985613,113.991402 
	C14.994766,113.966179 14.994766,113.966225 15.004275,127.538620 
z"/>
<path fill="#FEFEFE" opacity="1.000000" stroke="none" 
	d="
M211.996399,99.461273 
	C216.353455,98.998344 220.712082,99.001968 225.535339,99.002792 
	C226.000000,103.356903 226.000000,107.713799 226.000000,112.535355 
	C225.671478,113.002693 225.342957,113.007248 225.014435,113.007812 
	C212.006592,113.030403 212.006592,113.030342 211.996399,99.461273 
z"/>
<path fill="#FCFDFD" opacity="1.000000" stroke="none" 
	d="
M15.000853,42.996490 
	C10.643672,42.998596 6.286492,43.000698 1.464656,43.001400 
	C1.000000,38.643101 1.000000,34.286201 1.456221,29.462482 
	C4.358996,28.956385 6.805549,28.917105 9.513459,29.083401 
	C11.866800,33.185242 13.958784,37.081501 15.795780,41.142052 
	C15.360811,41.869724 15.180832,42.433109 15.000853,42.996490 
z"/>
<path fill="#E8EDEB" opacity="1.000000" stroke="none" 
	d="
M9.252102,28.877825 
	C6.805549,28.917105 4.358996,28.956385 1.456221,28.997833 
	C1.000000,24.643101 1.000000,20.286201 1.000000,15.464651 
	C5.358026,15.001964 9.716052,15.003928 14.539206,15.007248 
	C15.004334,15.008604 14.999720,14.999356 14.996595,15.320364 
	C15.012140,16.490370 15.030808,17.339369 14.624856,18.354561 
	C11.004807,18.663227 7.809378,18.805700 4.186664,18.967224 
	C6.105113,22.720695 7.678607,25.799261 9.252102,28.877825 
z"/>
<path fill="#FAFDFC" opacity="1.000000" stroke="none" 
	d="
M211.997864,15.001217 
	C216.354050,15.000793 220.712357,14.999204 225.535339,14.998808 
	C226.000000,19.356899 226.000000,23.713799 226.000000,28.535351 
	C223.745193,28.758133 221.490402,28.516266 219.078003,27.610302 
	C220.246841,24.408321 221.573257,21.870438 223.056778,19.031986 
	C218.966690,18.700947 215.453354,18.416590 211.958893,17.740191 
	C211.985794,16.564278 211.993805,15.780406 212.001831,14.996533 
	C212.001831,14.996533 212.000000,15.000054 211.997864,15.001217 
z"/>
<path fill="#FEFEFE" opacity="1.000000" stroke="none" 
	d="
M42.995941,127.013878 
	C47.360847,127.339714 51.725754,127.665550 56.545330,127.995689 
	C57.000000,128.000000 57.000000,127.999390 57.001545,128.464142 
	C57.003601,133.287445 57.004112,137.646011 56.539429,142.000214 
	C51.714428,141.999008 47.354626,142.002167 42.997040,141.540024 
	C43.001064,136.709778 43.002872,132.344803 43.002647,127.738342 
	C43.000610,127.496857 42.995941,127.013878 42.995941,127.013878 
z"/>
<path fill="#FEFEFE" opacity="1.000000" stroke="none" 
	d="
M28.995375,98.995811 
	C28.997229,100.483238 29.031378,101.971436 28.995789,103.457970 
	C28.732357,114.460884 31.055300,112.759438 19.245548,113.061508 
	C16.049015,113.143257 14.707731,112.154205 14.954836,108.850067 
	C15.176076,105.891777 15.000691,102.903831 15.002287,99.462517 
	C15.004274,98.996063 14.999773,99.000206 15.463003,99.003716 
	C20.285549,99.006355 24.644867,99.005486 29.002224,99.002411 
	C29.000265,99.000191 28.995375,98.995811 28.995375,98.995811 
z"/>
<path fill="#FEFEFE" opacity="1.000000" stroke="none" 
	d="
M15.002023,142.002121 
	C15.002431,137.644669 15.000616,133.284805 14.996895,128.459641 
	C19.354797,127.993851 23.714603,127.993355 28.537090,127.996330 
	C28.999767,127.999794 28.996128,127.995728 28.997936,128.460815 
	C29.001476,133.285645 29.003208,137.645370 28.539988,142.000702 
	C23.715176,141.996140 19.355316,141.995956 14.995458,141.995789 
	C14.995458,141.995789 14.999801,141.999695 15.002023,142.002121 
z"/>
<path fill="#FEFEFE" opacity="1.000000" stroke="none" 
	d="
M42.997826,126.547043 
	C42.995941,127.013878 43.000610,127.496857 42.537468,127.742836 
	C37.714928,127.991119 33.355530,127.993423 28.996128,127.995728 
	C28.996128,127.995728 28.999767,127.999794 29.001991,128.001770 
	C29.002903,126.350990 28.972166,124.697662 29.005072,123.045601 
	C29.212799,112.616020 27.279285,114.275169 38.259926,113.921135 
	C41.919800,113.803131 43.450394,114.871307 43.049549,118.648041 
	C42.789356,121.099579 43.000015,123.601089 42.997826,126.547043 
z"/>
<path fill="#FEFEFE" opacity="1.000000" stroke="none" 
	d="
M43.001831,98.997559 
	C38.643120,99.000732 34.284409,99.003906 29.460535,99.001450 
	C28.995375,98.995811 29.000265,99.000191 29.000727,98.537201 
	C29.002205,93.714638 29.003222,89.355072 29.002035,84.997849 
	C28.999832,85.000198 28.995750,85.004013 29.457722,85.004639 
	C33.857548,85.018715 37.795403,85.032166 41.947655,85.263947 
	C42.512917,86.201843 42.863781,86.921402 43.151154,88.124115 
	C43.060501,92.070000 43.033344,95.532707 43.003338,98.997498 
	C43.000492,98.999565 43.001831,98.997559 43.001831,98.997559 
z"/>
<path fill="#FBFDFC" opacity="1.000000" stroke="none" 
	d="
M57.050415,112.954430 
	C56.721535,112.967667 56.392750,112.989075 56.063759,112.992958 
	C42.999641,113.147240 42.999638,113.147049 43.000320,99.463852 
	C43.001831,98.997559 43.000492,98.999565 43.466682,98.996872 
	C45.814835,98.884087 47.696796,98.774002 49.809692,98.898491 
	C52.450062,103.691154 54.859501,108.249229 57.212929,112.842049 
	C57.156921,112.876785 57.050415,112.954430 57.050415,112.954430 
z"/>
<path fill="#F6FCF9" opacity="1.000000" stroke="none" 
	d="
M57.000221,127.999847 
	C57.002903,123.298721 57.005356,118.597740 57.029114,113.425598 
	C57.050415,112.954430 57.156921,112.876785 57.475117,113.056625 
	C60.707802,118.126419 63.622292,123.016380 66.041893,127.930527 
	C62.698002,127.969604 59.849003,127.984497 57.000000,127.999390 
	C57.000000,127.999390 57.000000,128.000000 57.000221,127.999847 
z"/>
<path fill="#E8EDEB" opacity="1.000000" stroke="none" 
	d="
M183.990204,113.029404 
	C183.990204,113.029404 183.999756,113.499916 183.535339,113.740463 
	C169.948013,113.995644 169.947952,113.995644 169.993469,127.017532 
	C169.994614,127.346252 170.000443,127.674950 169.547806,127.997047 
	C166.328873,127.910606 163.566208,127.830780 160.880798,127.410324 
	C166.630600,117.363091 172.303131,107.656494 178.059418,98.327988 
	C180.093658,99.139488 182.044174,99.572891 183.994659,100.469177 
	C183.993149,104.964500 183.991684,108.996956 183.990204,113.029404 
z"/>
<path fill="#FEFEFE" opacity="1.000000" stroke="none" 
	d="
M198.004669,128.004700 
	C198.003113,126.517365 197.969513,125.029251 198.005096,123.542809 
	C198.268494,112.540932 195.944321,114.241440 207.754196,113.939529 
	C210.950577,113.857826 212.291595,114.846870 212.044418,118.150826 
	C211.823120,121.108910 211.998672,124.096695 211.997375,127.537888 
	C211.995621,128.004395 212.000259,127.999794 211.537140,127.996429 
	C206.714462,127.993851 202.354935,127.994629 197.997528,127.997604 
	C197.999680,127.999802 198.004669,128.004700 198.004669,128.004700 
z"/>
<path fill="#FEFEFE" opacity="1.000000" stroke="none" 
	d="
M170.004074,128.003662 
	C170.000443,127.674950 169.994614,127.346252 169.993469,127.017532 
	C169.947952,113.995644 169.948013,113.995644 183.537384,113.975754 
	C184.001923,118.338387 184.000015,122.706261 183.999054,127.536972 
	C184.000000,127.999802 184.003815,127.996284 183.538727,127.995316 
	C178.714386,127.994560 174.355133,127.994759 169.997711,127.997368 
	C169.999557,127.999771 170.004074,128.003662 170.004074,128.003662 
z"/>
<path fill="#FEFEFE" opacity="1.000000" stroke="none" 
	d="
M211.998001,84.997849 
	C211.997589,89.355179 211.999420,93.714882 212.003220,98.539810 
	C207.645294,99.005447 203.285416,99.005867 198.462769,99.003242 
	C198.000000,99.000198 198.003708,99.004128 198.001678,98.539009 
	C198.001175,93.714691 198.002701,89.355499 198.002106,84.998154 
	C198.000000,85.000000 197.996338,85.004219 198.461380,85.005432 
	C203.285782,85.005821 207.645126,85.004997 212.004486,85.004173 
	C212.004486,85.004173 212.000244,85.000221 211.998001,84.997849 
z"/>
<path fill="#FEFEFE" opacity="1.000000" stroke="none" 
	d="
M184.457184,113.022385 
	C183.991684,108.996956 183.993149,104.964500 183.997543,100.218178 
	C184.000305,99.337013 184.000153,99.169731 184.464661,99.004303 
	C189.287445,99.005478 193.645584,99.004799 198.003708,99.004128 
	C198.003708,99.004128 198.000000,99.000198 197.997864,98.998161 
	C197.996857,99.324738 197.998795,99.653351 197.998947,99.981964 
	C198.005264,112.990402 198.005249,112.990402 184.457184,113.022385 
z"/>
<path fill="#FEFEFE" opacity="1.000000" stroke="none" 
	d="
M183.998093,128.001923 
	C188.355576,128.000717 192.714981,127.997383 197.539520,127.999374 
	C198.004669,128.004700 197.999680,127.999802 197.999207,128.462769 
	C197.997589,133.285339 197.996460,137.644913 197.997650,142.002258 
	C198.000000,142.000000 198.004486,141.995346 197.539368,141.994324 
	C192.714417,141.997131 188.354599,142.000977 183.995789,141.539856 
	C183.999161,136.715363 184.001480,132.355820 184.003815,127.996284 
	C184.003815,127.996284 184.000000,127.999802 183.998093,128.001923 
z"/>
<path fill="#FEFEFE" opacity="1.000000" stroke="none" 
	d="
M98.998009,15.002102 
	C99.324646,15.002961 99.653252,15.000670 99.981850,15.000463 
	C112.991730,14.992247 112.991730,14.992272 112.554138,28.537989 
	C108.062370,29.002829 104.032715,29.002743 99.750214,29.000469 
	C99.328835,28.998575 99.160301,28.998869 98.996574,28.534578 
	C99.002029,23.712294 99.002663,19.354591 99.003304,14.996889 
	C99.003304,14.996889 98.999969,14.999925 98.998009,15.002102 
z"/>
<path fill="#ECECEC" opacity="1.000000" stroke="none" 
	d="
M100.003052,29.002657 
	C104.032715,29.002743 108.062370,29.002829 112.556969,29.004356 
	C113.021904,29.005798 113.497475,28.999968 113.740280,29.462639 
	C113.989426,34.284069 113.995781,38.642826 113.540680,42.999699 
	C109.661385,43.015823 106.243546,43.033836 102.550728,42.867050 
	C101.081963,40.495369 99.888168,38.308487 99.025955,35.878471 
	C99.572701,33.424446 99.787872,31.213552 100.003052,29.002657 
z"/>
<path fill="#FDFEFD" opacity="1.000000" stroke="none" 
	d="
M114.002136,43.001587 
	C113.995781,38.642826 113.989426,34.284069 113.978073,29.460075 
	C118.339439,28.996296 122.705818,28.997751 127.536102,28.999603 
	C128.000000,29.000000 127.999390,28.999479 127.998520,29.406975 
	C128.351746,31.549416 128.705841,33.284359 129.001160,35.367443 
	C127.259949,38.460064 125.577499,41.204544 123.566376,43.799004 
	C121.819504,43.439938 120.401329,43.230900 118.568024,43.019569 
	C116.769295,43.012520 115.385674,43.007763 114.001030,43.001503 
	C114.000000,43.000000 114.002136,43.001587 114.002136,43.001587 
z"/>
<path fill="#FCFCFC" opacity="1.000000" stroke="none" 
	d="
M127.008507,15.428909 
	C127.008987,14.996701 127.498497,14.998944 127.743088,15.000753 
	C132.349762,15.001360 136.711853,15.000155 141.539108,15.000773 
	C142.004272,15.002595 142.000000,14.999955 141.997940,15.347456 
	C141.987762,16.626484 141.979645,17.558010 141.576660,18.504744 
	C139.951035,19.420477 138.413330,20.095667 137.552704,21.267927 
	C135.699417,23.792299 134.194412,26.572359 132.095093,29.178921 
	C130.428665,29.073206 129.214035,29.036343 127.999390,28.999479 
	C127.999390,28.999479 128.000000,29.000000 128.000916,29.001163 
	C127.670563,24.621925 127.339294,20.241522 127.008507,15.428909 
z"/>
<path fill="#4FB988" opacity="1.000000" stroke="none" 
	d="
M177.975662,97.949905 
	C172.303131,107.656494 166.630600,117.363091 160.897522,127.422981 
	C160.836975,127.776283 160.842133,127.814041 160.605377,127.924065 
	C160.255478,128.354660 160.142349,128.675247 159.815872,129.254715 
	C158.341888,131.855484 157.081253,134.197372 155.564209,136.756622 
	C154.767395,138.129578 154.226990,139.285141 153.416901,140.667114 
	C150.300186,145.896927 147.453156,150.900314 144.371704,156.100464 
	C143.390381,157.737793 142.643463,159.178329 141.617096,160.839355 
	C139.874542,163.682037 138.411423,166.304230 136.682678,169.140778 
	C133.694519,174.254074 130.972015,179.153000 128.029266,184.295639 
	C127.244522,185.697540 126.680016,186.855759 125.817001,188.180969 
	C123.721825,191.575516 121.925156,194.803070 119.900055,198.287323 
	C117.447426,201.705170 115.223251,204.866318 112.887070,207.698517 
	C110.855865,204.245010 108.936661,201.120438 106.969902,197.645828 
	C104.314331,193.032013 101.706306,188.768219 99.115540,184.237167 
	C98.823509,183.558212 98.514221,183.146530 98.132111,182.395325 
	C95.680313,178.043579 93.301353,174.031342 90.882507,169.674164 
	C88.997818,166.388245 87.153023,163.447281 85.241692,160.193359 
	C84.189224,158.554688 83.203293,157.228989 82.061813,155.589844 
	C76.783104,146.153030 71.659943,137.029694 66.536781,127.906342 
	C63.622292,123.016380 60.707802,118.126419 57.531124,113.021881 
	C54.859501,108.249229 52.450062,103.691154 49.699955,98.558540 
	C47.311073,94.536324 45.262859,91.088638 43.214642,87.640953 
	C42.863781,86.921402 42.512917,86.201843 41.947914,85.036057 
	C41.618191,84.282784 41.404110,84.079346 41.054901,83.686951 
	C40.674095,82.943565 40.329918,82.492752 39.896042,81.704239 
	C37.909393,78.234627 36.012447,75.102707 34.050030,71.623444 
	C33.001484,70.792427 32.018410,70.308769 31.028601,69.447990 
	C29.155384,65.011993 27.288902,60.953114 25.335518,56.536484 
	C22.182667,51.111740 19.116716,46.044750 16.050768,40.977764 
	C13.958784,37.081501 11.866800,33.185242 9.513459,29.083401 
	C7.678607,25.799261 6.105113,22.720695 4.186664,18.967224 
	C7.809378,18.805700 11.004807,18.663227 15.062290,18.515556 
	C20.269026,18.398186 24.613707,18.286011 29.394390,18.341831 
	C34.255337,18.399843 38.680279,18.289862 43.478340,18.333729 
	C45.200562,18.602495 46.549656,18.717415 48.031876,19.169014 
	C69.808434,56.932117 91.451866,94.358543 113.456718,132.409943 
	C115.104256,129.807190 116.306641,128.043625 117.373726,126.201668 
	C134.435791,96.749588 151.509048,67.303925 168.506516,37.814564 
	C172.130585,31.527063 175.464691,25.072435 179.329895,18.547657 
	C181.141953,18.305571 182.556473,18.210629 184.430817,18.207062 
	C189.269989,18.238401 193.649368,18.178368 198.486572,18.187901 
	C203.276276,18.215725 207.608154,18.173979 211.940018,18.132231 
	C215.453354,18.416590 218.966690,18.700947 223.056778,19.031986 
	C221.573257,21.870438 220.246841,24.408321 218.820786,27.272404 
	C213.145767,37.148987 207.570358,46.699371 201.684387,56.817024 
	C196.527725,65.799080 191.681641,74.213860 186.612854,82.795700 
	C186.270309,83.306267 186.150452,83.649780 185.869568,84.204918 
	C185.672470,84.590103 185.636368,84.763672 185.381500,85.125992 
	C184.695129,86.338768 184.227539,87.362793 183.479950,88.609131 
	C181.458511,91.870926 179.717087,94.910416 177.975662,97.949905 
z"/>
<path fill="#FDFEFD" opacity="1.000000" stroke="none" 
	d="
M186.835541,82.628639 
	C191.681641,74.213860 196.527725,65.799080 201.634598,57.170502 
	C204.960312,56.969433 208.025269,56.982159 211.546814,56.992973 
	C212.002151,61.351810 212.000900,65.712555 211.998352,70.538361 
	C211.997055,71.003426 212.000000,70.999802 211.536804,71.002075 
	C206.717361,71.005859 202.361099,71.007362 197.843460,70.787857 
	C197.277863,70.617104 196.873642,70.667374 196.469437,70.717636 
	C196.976746,71.145309 197.484039,71.572983 197.994324,72.463806 
	C197.996979,76.952705 197.996658,80.978462 197.996338,85.004219 
	C197.996338,85.004219 198.000000,85.000000 197.537445,85.003334 
	C193.250031,84.983528 189.425156,84.960381 185.600281,84.937241 
	C185.636368,84.763672 185.672470,84.590103 186.103943,84.047897 
	C186.611389,83.329041 186.723465,82.978844 186.835541,82.628639 
z"/>
<path fill="#FCFDFD" opacity="1.000000" stroke="none" 
	d="
M112.999077,208.027466 
	C115.223251,204.866318 117.447426,201.705170 120.333725,198.280212 
	C123.329651,198.010345 125.663452,198.004257 127.998627,197.999084 
	C128.000000,198.000000 127.996971,197.995941 127.995819,198.460861 
	C127.995537,203.285095 127.996399,207.644394 127.997253,212.003708 
	C127.997253,212.003708 127.999779,212.000000 128.001923,211.998505 
	C123.312096,211.997864 118.620132,211.998734 113.461456,211.997986 
	C112.994751,211.996384 113.000198,211.999939 113.002792,211.604050 
	C113.003288,210.147934 113.001183,209.087692 112.999077,208.027466 
z"/>
<path fill="#EDEDED" opacity="1.000000" stroke="none" 
	d="
M14.997326,142.460876 
	C19.355316,141.995956 23.715176,141.996140 28.537354,141.997955 
	C28.999672,141.999603 28.994898,141.995026 28.996895,142.460190 
	C29.000694,147.284988 29.002497,151.644638 28.539379,156.000427 
	C23.714428,155.995850 19.354395,155.995117 14.994361,155.994385 
	C14.994361,155.994385 14.999554,155.999588 15.002567,156.002594 
	C15.003452,151.645721 15.001324,147.285843 14.997326,142.460876 
z"/>
<path fill="#FEFEFE" opacity="1.000000" stroke="none" 
	d="
M211.998169,169.998169 
	C211.997025,174.355789 211.997711,178.715225 211.996750,183.539917 
	C211.995102,184.005142 212.000351,183.999619 211.537476,183.998901 
	C206.714676,184.000519 202.354721,184.002884 197.996231,183.539993 
	C197.996445,178.714645 197.995224,174.354538 198.459015,169.993881 
	C203.283920,169.996765 207.643799,170.000214 212.003662,170.003662 
	C212.003662,170.003662 212.000000,170.000000 211.998169,169.998169 
z"/>
<path fill="#FEFEFE" opacity="1.000000" stroke="none" 
	d="
M211.997864,141.997742 
	C211.996628,146.354767 211.997864,150.714401 211.997406,155.539185 
	C211.995728,156.004333 212.000229,155.999756 211.537079,155.998306 
	C206.714111,155.999786 202.354263,156.002701 197.995575,155.540344 
	C197.999313,150.715149 198.001892,146.355255 198.004486,141.995346 
	C198.004486,141.995346 198.000000,142.000000 198.462814,141.997131 
	C203.285400,141.997742 207.645172,142.001236 212.004944,142.004715 
	C212.004944,142.004715 212.000336,142.000351 211.997864,141.997742 
z"/>
<path fill="#FEFEFE" opacity="1.000000" stroke="none" 
	d="
M14.996597,156.459610 
	C19.354395,155.995117 23.714428,155.995850 28.537119,155.998169 
	C28.999777,155.999741 28.995703,155.995728 28.997627,156.460831 
	C29.001497,161.285919 29.003443,165.645889 28.540394,170.003616 
	C23.715805,169.999786 19.356209,169.998230 14.996611,169.996674 
	C14.996611,169.996674 14.999882,170.000000 15.001673,170.001831 
	C15.001920,165.644058 15.000378,161.284439 14.996597,156.459610 
z"/>
<path fill="#EDEDED" opacity="1.000000" stroke="none" 
	d="
M14.998148,170.461670 
	C19.356209,169.998230 23.715805,169.999786 28.537483,170.000458 
	C28.999561,169.999573 28.994106,169.994568 28.996305,170.459778 
	C29.000622,175.285034 29.002739,179.645065 28.539894,184.003174 
	C23.714874,183.999084 19.354818,183.996933 14.994761,183.994781 
	C14.994761,183.994781 14.999628,183.999603 15.002405,184.002396 
	C15.003351,179.645691 15.001518,175.286179 14.998148,170.461670 
z"/>
<path fill="#EDEDED" opacity="1.000000" stroke="none" 
	d="
M197.994431,156.005615 
	C202.354263,156.002701 206.714111,155.999786 211.539139,155.996292 
	C212.002701,160.354996 212.001053,164.714249 212.001541,169.538589 
	C207.643799,170.000214 203.283920,169.996765 198.462234,169.996841 
	C198.000412,170.000366 198.005585,170.006058 198.004059,169.540787 
	C198.003571,164.715134 198.004608,160.354767 198.003021,155.997009 
	C198.000381,155.999619 197.994431,156.005615 197.994431,156.005615 
z"/>
<path fill="#EDEDED" opacity="1.000000" stroke="none" 
	d="
M85.002342,211.997620 
	C80.645004,211.995575 76.284981,211.996277 71.459671,211.995712 
	C70.994392,211.994431 71.000427,212.000381 71.003235,211.537689 
	C71.002548,206.715225 70.999069,202.355423 71.460754,197.997253 
	C76.285629,198.000946 80.645348,198.003021 85.002701,198.002747 
	C85.000343,198.000381 84.994942,197.994919 84.999290,198.459885 
	C85.000702,203.284927 84.997757,207.645004 84.994820,212.005081 
	C84.994820,212.005081 84.999657,212.000381 85.002342,211.997620 
z"/>
<path fill="#FEFEFE" opacity="1.000000" stroke="none" 
	d="
M212.003357,211.540054 
	C207.645355,212.003098 203.285446,212.000931 198.460327,211.996948 
	C197.995117,211.995132 198.000351,212.000351 198.000412,211.537384 
	C197.998535,206.714508 197.996597,202.354599 198.459915,197.996307 
	C203.285080,198.000244 207.644974,198.002563 212.004883,198.004883 
	C212.004883,198.004883 212.000366,198.000366 211.997772,197.997772 
	C211.997269,202.355057 211.999374,206.714966 212.003357,211.540054 
z"/>
<path fill="#EDEDED" opacity="1.000000" stroke="none" 
	d="
M15.460246,212.002762 
	C14.997374,207.645020 14.999660,203.285110 15.003637,198.459930 
	C15.005329,197.994675 14.999613,198.000381 15.462376,198.000961 
	C20.285006,197.999466 24.644871,197.997391 29.003294,198.460266 
	C28.999449,203.285263 28.997049,207.645294 28.994650,212.005325 
	C28.994650,212.005325 28.999601,212.000412 29.002459,211.997559 
	C24.645346,211.996674 20.285376,211.998642 15.460246,212.002762 
z"/>
<path fill="#FEFEFE" opacity="1.000000" stroke="none" 
	d="
M29.459850,212.003448 
	C28.997049,207.645294 28.999449,203.285263 29.000786,198.462799 
	C28.999722,198.000351 28.995235,198.004745 29.460428,198.002441 
	C34.285477,197.998352 38.645336,197.996597 43.003876,198.459808 
	C43.000019,203.284836 42.997482,207.644867 42.994942,212.004898 
	C42.994942,212.004898 42.999702,212.000397 43.002281,211.997681 
	C38.644928,211.997147 34.284988,211.999359 29.459850,212.003448 
z"/>
<path fill="#EDEDED" opacity="1.000000" stroke="none" 
	d="
M43.460117,212.002777 
	C42.997482,207.644867 43.000019,203.284836 43.001095,198.462601 
	C42.999630,198.000397 42.994793,198.005188 43.459976,198.003204 
	C48.284706,197.999557 52.644257,197.997925 57.002991,198.461182 
	C56.999435,203.285904 56.996685,207.645737 56.993938,212.005569 
	C56.993938,212.005569 56.999523,212.000427 57.002541,211.997208 
	C52.645470,211.996216 48.285378,211.998444 43.460117,212.002777 
z"/>
<path fill="#FEFEFE" opacity="1.000000" stroke="none" 
	d="
M57.459213,212.004120 
	C56.996685,207.645737 56.999435,203.285904 57.000980,198.463043 
	C56.999779,198.000000 56.996090,198.003845 57.461147,198.001648 
	C62.285595,198.001083 66.644981,198.002731 71.002289,198.002319 
	C71.000206,198.000290 70.995590,197.995636 70.995590,197.995636 
	C70.999069,202.355423 71.002548,206.715225 71.005829,211.540314 
	C66.645241,212.004639 62.284863,212.003662 57.459213,212.004120 
z"/>
<path fill="#FEFEFE" opacity="1.000000" stroke="none" 
	d="
M85.460007,212.003357 
	C84.997757,207.645004 85.000702,203.284927 85.464523,198.461273 
	C90.286552,197.997116 94.647705,197.996552 99.012070,198.460892 
	C99.009071,203.285080 99.002853,207.644379 98.996643,212.003662 
	C98.996643,212.003662 98.999840,212.000000 99.002213,211.997925 
	C94.644783,211.997787 90.284988,211.999725 85.460007,212.003357 
z"/>
<path fill="#E9EDEB" opacity="1.000000" stroke="none" 
	d="
M99.461639,212.000336 
	C99.002853,207.644379 99.009071,203.285080 99.007599,198.462769 
	C98.999908,197.999756 99.002609,198.004639 99.447166,198.006439 
	C102.266968,198.004105 104.642212,197.999985 107.017456,197.995865 
	C108.936661,201.120438 110.855865,204.245010 112.887070,207.698517 
	C113.001183,209.087692 113.003288,210.147934 113.004257,211.606079 
	C108.644287,212.001678 104.285461,211.999329 99.461639,212.000336 
z"/>
<path fill="#EDEDED" opacity="1.000000" stroke="none" 
	d="
M128.462189,212.002045 
	C127.996399,207.644394 127.995537,203.285095 128.460815,198.462402 
	C133.286133,197.997864 137.645279,197.996719 141.999573,198.460480 
	C141.994659,203.285263 141.994614,207.645142 141.994568,212.005005 
	C141.994568,212.005005 141.999634,212.000412 142.002350,211.997482 
	C137.645752,211.996490 133.286438,211.998428 128.462189,212.002045 
z"/>
<path fill="#FEFEFE" opacity="1.000000" stroke="none" 
	d="
M142.459778,212.003052 
	C141.994614,207.645142 141.994659,203.285263 141.997223,198.462830 
	C141.999725,198.000275 141.995529,198.004471 142.460632,198.002518 
	C147.285706,197.998520 151.645645,197.996475 156.003265,198.459442 
	C155.999207,203.284409 155.997452,207.644379 155.995728,212.004333 
	C155.995728,212.004333 155.999741,212.000244 156.002045,211.997986 
	C151.644547,211.997513 147.284775,211.999313 142.459778,212.003052 
z"/>
<path fill="#EDEDED" opacity="1.000000" stroke="none" 
	d="
M156.460815,212.002533 
	C155.997452,207.644379 155.999207,203.284409 156.000275,198.462433 
	C155.999588,198.000412 155.994385,198.005646 156.459610,198.003387 
	C161.284409,197.999588 165.643967,197.998032 170.000076,198.461349 
	C169.995911,203.286148 169.995193,207.646057 169.994492,212.005981 
	C169.994492,212.005981 169.999573,212.000397 170.002777,211.997467 
	C165.645950,211.996582 161.285950,211.998642 156.460815,212.002533 
z"/>
<path fill="#FEFEFE" opacity="1.000000" stroke="none" 
	d="
M170.459717,212.003784 
	C169.995193,207.646057 169.995911,203.286148 169.998306,198.463104 
	C170.000000,198.000000 169.996735,198.003281 170.461731,198.001648 
	C175.286240,197.998245 179.645767,197.996490 184.003372,198.459717 
	C183.999329,203.284866 183.997177,207.645004 183.995041,212.005157 
	C183.995041,212.005157 183.999603,212.000381 184.002380,211.997742 
	C179.645065,211.997253 175.285004,211.999420 170.459717,212.003784 
z"/>
<path fill="#EDEDED" opacity="1.000000" stroke="none" 
	d="
M184.460205,212.003021 
	C183.997177,207.645004 183.999329,203.284866 184.000519,198.462555 
	C183.999588,198.000412 183.994659,198.005341 184.459869,198.003311 
	C189.285172,198.002640 193.645264,198.003998 198.002869,198.002869 
	C198.000381,198.000381 197.994659,197.994675 197.994659,197.994675 
	C197.996597,202.354599 197.998535,206.714508 198.002686,211.539673 
	C193.645065,212.003586 189.285233,212.002243 184.460205,212.003021 
z"/>
<path fill="#EDEDED" opacity="1.000000" stroke="none" 
	d="
M212.002808,141.539581 
	C207.645172,142.001236 203.285400,141.997742 198.460480,141.999390 
	C197.996460,137.644913 197.997589,133.285339 197.997070,128.460571 
	C202.354935,127.994629 206.714462,127.993851 211.539154,127.994392 
	C212.003082,132.355286 212.001877,136.714859 212.002808,141.539581 
z"/>
<path fill="#FEFEFE" opacity="1.000000" stroke="none" 
	d="
M29.002230,197.997833 
	C24.644871,197.997391 20.285006,197.999466 15.459881,198.003448 
	C14.996048,193.645340 14.997475,189.285309 14.996832,184.460022 
	C19.354818,183.996933 23.714874,183.999084 28.537308,184.000427 
	C28.999681,183.999603 28.994879,183.995102 28.997082,184.460266 
	C28.997936,189.285187 28.996586,193.644974 28.995235,198.004745 
	C28.995235,198.004745 28.999722,198.000351 29.002230,197.997833 
z"/>
<path fill="#EDEDED" opacity="1.000000" stroke="none" 
	d="
M212.002716,197.539719 
	C207.644974,198.002563 203.285080,198.000244 198.459915,197.996307 
	C197.994659,197.994675 198.000381,198.000381 198.000946,197.537628 
	C198.002762,192.714813 198.004013,188.354767 198.002823,183.997162 
	C198.000381,183.999619 197.994781,184.005234 197.994781,184.005249 
	C202.354721,184.002884 206.714676,184.000519 211.539886,183.996613 
	C212.003616,188.354874 212.002075,192.714722 212.002716,197.539719 
z"/>
<path fill="#FCFDFD" opacity="1.000000" stroke="none" 
	d="
M198.028748,18.118332 
	C193.649368,18.178368 189.269989,18.238401 184.440964,17.816349 
	C183.995316,16.554642 183.999313,15.775021 184.003311,14.995399 
	C184.003311,14.995399 184.000290,14.999895 183.997833,15.001623 
	C188.355026,15.002014 192.714645,15.000678 197.539459,15.001288 
	C198.004623,15.003235 198.000000,14.999960 198.000595,15.387877 
	C198.010376,16.556639 198.019562,17.337486 198.028748,18.118332 
z"/>
<path fill="#EEEEEE" opacity="1.000000" stroke="none" 
	d="
M29.004238,84.995499 
	C29.003222,89.355072 29.002205,93.714638 29.002686,98.539413 
	C24.644867,99.005486 20.285549,99.006355 15.461128,99.005768 
	C14.997954,94.644676 14.999884,90.285042 15.003359,85.460190 
	C15.004905,84.994965 14.999695,85.000343 15.462547,85.003952 
	C20.285013,85.003540 24.644625,84.999519 29.004238,84.995499 
z"/>
<path fill="#EDEDED" opacity="1.000000" stroke="none" 
	d="
M198.461380,85.005432 
	C197.996658,80.978462 197.996979,76.952705 197.998703,72.215866 
	C198.000107,71.504784 198.004852,71.008873 198.004852,71.008873 
	C202.361099,71.007362 206.717361,71.005859 211.538605,71.000748 
	C212.002640,75.356071 212.001694,79.714996 212.002625,84.539047 
	C207.645126,85.004997 203.285782,85.005821 198.461380,85.005432 
z"/>
<path fill="#FEFEFE" opacity="1.000000" stroke="none" 
	d="
M29.002035,84.997849 
	C24.644625,84.999519 20.285013,85.003540 15.460176,85.006226 
	C14.996954,80.645241 14.998955,76.285591 15.002629,71.460777 
	C15.004304,70.995621 14.999825,71.000198 15.464323,71.001198 
	C29.015717,70.994637 29.015747,70.994637 29.000526,84.018524 
	C29.000141,84.347023 28.997395,84.675514 28.995750,85.004013 
	C28.995750,85.004013 28.999832,85.000198 29.002035,84.997849 
z"/>
<path fill="#ECEDEC" opacity="1.000000" stroke="none" 
	d="
M29.457722,85.004639 
	C28.997395,84.675514 29.000141,84.347023 29.000526,84.018524 
	C29.015747,70.994637 29.015717,70.994637 15.462353,71.003143 
	C14.998745,66.644371 15.001607,62.284664 15.005677,57.459679 
	C15.006886,56.994396 15.000166,56.999695 15.461662,57.004120 
	C19.089579,56.970448 22.256001,56.932343 25.422421,56.894238 
	C27.288902,60.953114 29.155384,65.011993 31.165947,69.740646 
	C32.245182,70.930550 33.180344,71.450676 34.115501,71.970795 
	C36.012447,75.102707 37.909393,78.234627 39.923840,82.003357 
	C40.391403,83.086632 40.741467,83.533089 41.091530,83.979538 
	C41.404110,84.079346 41.618191,84.282784 41.733517,84.817719 
	C37.795403,85.032166 33.857548,85.018715 29.457722,85.004639 
z"/>
<path fill="#F6FCF9" opacity="1.000000" stroke="none" 
	d="
M25.335518,56.536484 
	C22.256001,56.932343 19.089579,56.970448 15.460862,57.005989 
	C14.998075,52.644485 14.997584,48.285545 14.998972,43.461548 
	C15.180832,42.433109 15.360811,41.869724 15.795780,41.142052 
	C19.116716,46.044750 22.182667,51.111740 25.335518,56.536484 
z"/>
<path fill="#EAF0ED" opacity="1.000000" stroke="none" 
	d="
M198.486572,18.187901 
	C198.019562,17.337486 198.010376,16.556639 197.999084,15.385884 
	C202.355331,14.997345 206.713715,14.998713 211.536957,14.998308 
	C211.993805,15.780406 211.985794,16.564278 211.958893,17.740191 
	C207.608154,18.173979 203.276276,18.215725 198.486572,18.187901 
z"/>
<path fill="#EDEEEE" opacity="1.000000" stroke="none" 
	d="
M183.538300,14.997356 
	C183.999313,15.775021 183.995316,16.554642 183.981171,17.724974 
	C182.556473,18.210629 181.141953,18.305571 178.944962,18.449127 
	C175.431229,18.495588 172.699966,18.493435 169.962006,18.141640 
	C169.972107,16.859423 169.988907,15.926847 170.005707,14.994272 
	C170.005707,14.994272 170.000412,14.999532 169.997360,15.002584 
	C174.353973,15.003529 178.713638,15.001422 183.538300,14.997356 
z"/>
<path fill="#FEFEFE" opacity="1.000000" stroke="none" 
	d="
M169.540482,14.995762 
	C169.988907,15.926847 169.972107,16.859423 169.500458,18.150700 
	C164.707535,18.503519 160.369476,18.497639 156.035553,18.142202 
	C156.027679,16.860508 156.015671,15.928370 156.003662,14.996231 
	C156.003662,14.996231 156.000000,14.999825 155.998169,15.001755 
	C160.355972,15.001541 164.715607,14.999397 169.540482,14.995762 
z"/>
<path fill="#EDEEEE" opacity="1.000000" stroke="none" 
	d="
M155.538635,14.998395 
	C156.015671,15.928370 156.027679,16.860508 155.569092,18.158848 
	C150.722855,18.513210 146.347198,18.501373 141.971542,18.489536 
	C141.979645,17.558010 141.987762,16.626484 141.996719,15.345415 
	C146.356232,14.997436 150.714920,14.998997 155.538635,14.998395 
z"/>
<path fill="#EAEBEB" opacity="1.000000" stroke="none" 
	d="
M98.538315,14.999792 
	C99.002663,19.354591 99.002029,23.712294 98.556488,28.531960 
	C96.938202,29.032660 95.764816,29.071398 94.344688,28.898346 
	C93.052315,26.839195 92.045189,24.968679 90.951378,23.150295 
	C89.562729,20.841759 88.665260,17.852535 84.963745,18.140203 
	C84.975998,16.859140 84.992081,15.927487 85.008163,14.995834 
	C85.008163,14.995834 85.000420,14.999188 84.998169,15.003647 
	C89.355049,15.006302 93.714188,15.004498 98.538315,14.999792 
z"/>
<path fill="#FEFEFE" opacity="1.000000" stroke="none" 
	d="
M84.542679,14.997471 
	C84.992081,15.927487 84.975998,16.859140 84.502228,18.149967 
	C79.706757,18.503309 75.368980,18.497475 71.037872,18.142088 
	C71.031075,16.860229 71.017601,15.927924 71.004128,14.995620 
	C71.004128,14.995620 71.000229,14.999787 70.997910,15.001972 
	C75.356125,15.002474 79.716660,15.000791 84.542679,14.997471 
z"/>
<path fill="#EDEEEE" opacity="1.000000" stroke="none" 
	d="
M70.539047,14.997461 
	C71.017601,15.927924 71.031075,16.860229 70.571419,18.158783 
	C65.722275,18.513470 61.346256,18.501907 56.965519,18.140789 
	C56.975582,16.858961 56.990364,15.926688 57.005150,14.994416 
	C57.005146,14.994416 57.000362,14.999665 56.997234,15.002548 
	C61.354057,15.003388 65.714012,15.001346 70.539047,14.997461 
z"/>
<path fill="#FDFEFD" opacity="1.000000" stroke="none" 
	d="
M56.539970,14.996178 
	C56.990364,15.926688 56.975582,16.858961 56.514954,18.151695 
	C53.345657,18.618883 50.622208,18.725609 47.898754,18.832333 
	C46.549656,18.717415 45.200562,18.602495 43.446651,18.020992 
	C43.029083,16.701433 43.016331,15.848460 43.003578,14.995487 
	C43.003578,14.995487 43.000229,14.999887 42.997620,15.001898 
	C47.354939,15.001919 51.714867,14.999928 56.539970,14.996178 
z"/>
<path fill="#EAF0ED" opacity="1.000000" stroke="none" 
	d="
M42.538555,14.997645 
	C43.016331,15.848460 43.029083,16.701433 43.073532,17.867144 
	C38.680279,18.289862 34.255337,18.399843 29.402107,18.028648 
	C28.984322,16.696838 28.994823,15.846206 29.005325,14.995574 
	C29.005323,14.995574 29.000265,14.999724 28.997620,15.002695 
	C33.354496,15.003712 37.714012,15.001758 42.538555,14.997645 
z"/>
<path fill="#FCFDFD" opacity="1.000000" stroke="none" 
	d="
M28.540117,14.996510 
	C28.994823,15.846206 28.984322,16.696838 28.966105,17.860653 
	C24.613707,18.286011 20.269026,18.398186 15.486912,18.349365 
	C15.030808,17.339369 15.012140,16.490370 14.992582,15.319045 
	C19.352766,14.996961 23.713837,14.997203 28.540117,14.996510 
z"/>
<path fill="#EDEEEE" opacity="1.000000" stroke="none" 
	d="
M66.041893,127.930527 
	C71.659943,137.029694 76.783104,146.153030 81.587769,155.618271 
	C77.844933,155.974655 74.420601,155.989166 71.000031,155.537231 
	C71.016037,141.982712 71.016037,141.982697 57.981277,141.993256 
	C57.652660,141.993515 57.324043,141.994675 56.997585,141.997543 
	C56.999744,141.999680 57.004623,142.004562 57.004623,142.004562 
	C57.004112,137.646011 57.003601,133.287445 57.001545,128.464142 
	C59.849003,127.984497 62.698002,127.969604 66.041893,127.930527 
z"/>
<path fill="#EDEDED" opacity="1.000000" stroke="none" 
	d="
M42.994823,142.005310 
	C47.354626,142.002167 51.714428,141.999008 56.539429,142.000214 
	C57.004623,142.004562 56.999744,141.999680 56.999962,142.462708 
	C57.000675,147.284439 57.001175,151.643143 56.536835,155.998444 
	C51.712868,155.994934 47.353748,155.994797 42.997135,155.997131 
	C42.999641,155.999619 43.005371,156.005341 43.004471,155.540344 
	C43.004173,150.715164 43.004780,146.354980 43.002872,141.997208 
	C43.000359,141.999619 42.994823,142.005310 42.994823,142.005310 
z"/>
<path fill="#EEEEEE" opacity="1.000000" stroke="none" 
	d="
M28.997936,128.460815 
	C33.355530,127.993423 37.714928,127.991119 42.539505,127.984329 
	C43.002872,132.344803 43.001064,136.709778 42.997040,141.540024 
	C42.994823,142.005310 43.000359,141.999619 42.537613,141.995972 
	C37.714878,141.993225 33.354889,141.994125 28.994898,141.995026 
	C28.994898,141.995026 28.999672,141.999603 29.002306,142.002350 
	C29.003208,137.645370 29.001476,133.285645 28.997936,128.460815 
z"/>
<path fill="#E2ECE7" opacity="1.000000" stroke="none" 
	d="
M43.151154,88.124115 
	C45.262859,91.088638 47.311073,94.536324 49.469025,98.323959 
	C47.696796,98.774002 45.814835,98.884087 43.469528,98.994797 
	C43.033344,95.532707 43.060501,92.070000 43.151154,88.124115 
z"/>
<path fill="#FDFEFD" opacity="1.000000" stroke="none" 
	d="
M155.820618,136.539261 
	C157.081253,134.197372 158.341888,131.855484 160.037628,129.126526 
	C160.595871,128.430984 160.719009,128.122513 160.842133,127.814041 
	C160.842133,127.814041 160.836975,127.776283 160.820251,127.763626 
	C163.566208,127.830780 166.328873,127.910606 169.547806,127.997047 
	C170.004074,128.003662 169.999557,127.999771 169.999023,128.462631 
	C170.000854,133.285522 170.003220,137.645538 169.540314,142.002716 
	C164.715515,141.998047 160.355972,141.996246 155.997925,141.997223 
	C155.999390,142.000000 156.001831,141.998398 156.001419,141.547363 
	C155.940887,139.577316 155.880753,138.058289 155.820618,136.539261 
z"/>
<path fill="#F6F9F8" opacity="1.000000" stroke="none" 
	d="
M178.059418,98.327988 
	C179.717087,94.910416 181.458511,91.870926 183.551041,89.113701 
	C183.934753,92.598122 183.967377,95.800278 184.000000,99.002441 
	C184.000153,99.169731 184.000305,99.337013 183.997559,99.755295 
	C182.044174,99.572891 180.093658,99.139488 178.059418,98.327988 
z"/>
<path fill="#EDEDED" opacity="1.000000" stroke="none" 
	d="
M170.005569,142.005569 
	C170.003220,137.645538 170.000854,133.285522 169.997192,128.460236 
	C174.355133,127.994759 178.714386,127.994560 183.538727,127.995316 
	C184.001480,132.355820 183.999161,136.715363 183.998611,141.537262 
	C184.000397,141.999649 184.004776,141.994781 183.539581,141.993515 
	C178.714218,141.992798 174.354034,141.993332 169.996643,141.996643 
	C169.999405,141.999405 170.005569,142.005569 170.005569,142.005569 
z"/>
<path fill="#ECEEED" opacity="1.000000" stroke="none" 
	d="
M184.464661,99.004303 
	C183.967377,95.800278 183.934753,92.598122 183.831055,88.891388 
	C184.227539,87.362793 184.695129,86.338768 185.381500,85.125992 
	C189.425156,84.960381 193.250031,84.983528 197.539566,85.001480 
	C198.002701,89.355499 198.001175,93.714691 198.001678,98.539009 
	C193.645584,99.004799 189.287445,99.005478 184.464661,99.004303 
z"/>
<path fill="#EDEDED" opacity="1.000000" stroke="none" 
	d="
M197.539368,141.994324 
	C198.001892,146.355255 197.999313,150.715149 197.995575,155.540344 
	C197.994431,156.005615 198.000381,155.999619 197.537720,155.996750 
	C192.715454,155.997253 188.355850,156.000626 183.997589,155.538895 
	C184.000870,150.714127 184.002823,146.354446 184.004776,141.994781 
	C184.004776,141.994781 184.000397,141.999649 183.997589,142.002228 
	C188.354599,142.000977 192.714417,141.997131 197.539368,141.994324 
z"/>
<path fill="#F6F7F7" opacity="1.000000" stroke="none" 
	d="
M94.591438,29.110134 
	C95.764816,29.071398 96.938202,29.032660 98.551666,28.996540 
	C99.160301,28.998869 99.328835,28.998575 99.750214,29.000469 
	C99.787872,31.213552 99.572701,33.424446 98.774841,35.665306 
	C96.991913,33.500225 95.791679,31.305180 94.591438,29.110134 
z"/>
<path fill="#425465" opacity="1.000000" stroke="none" 
	d="
M94.344688,28.898346 
	C95.791679,31.305180 96.991913,33.500225 98.443268,35.908436 
	C99.888168,38.308487 101.081963,40.495369 102.610687,43.222050 
	C105.590996,48.190464 108.236366,52.619083 110.947197,57.380825 
	C111.818619,59.041229 112.624580,60.368507 113.775040,62.263096 
	C114.883545,60.190704 115.703682,58.657429 116.737625,56.886513 
	C118.665680,53.505455 120.379921,50.362038 122.340576,47.011879 
	C123.023010,45.853100 123.459023,44.901058 123.895050,43.949020 
	C125.577499,41.204544 127.259949,38.460064 129.287689,35.193237 
	C130.604279,32.863186 131.575577,31.055481 132.546860,29.247776 
	C134.194412,26.572359 135.699417,23.792299 137.552704,21.267927 
	C138.413330,20.095667 139.951035,19.420477 141.576660,18.504744 
	C146.347198,18.501373 150.722855,18.513210 155.564972,18.508404 
	C160.369476,18.497639 164.707535,18.503519 169.507141,18.500340 
	C172.699966,18.493435 175.431229,18.495588 178.547455,18.596273 
	C175.464691,25.072435 172.130585,31.527063 168.506516,37.814564 
	C151.509048,67.303925 134.435791,96.749588 117.373726,126.201668 
	C116.306641,128.043625 115.104256,129.807190 113.456718,132.409943 
	C91.451866,94.358543 69.808434,56.932117 48.031876,19.169012 
	C50.622208,18.725609 53.345657,18.618883 56.519676,18.501251 
	C61.346256,18.501907 65.722275,18.513470 70.564743,18.508339 
	C75.368980,18.497475 79.706757,18.503309 84.506058,18.499378 
	C88.665260,17.852535 89.562729,20.841759 90.951378,23.150295 
	C92.045189,24.968679 93.052315,26.839195 94.344688,28.898346 
z"/>
<path fill="#FAFCFC" opacity="1.000000" stroke="none" 
	d="
M110.881744,57.047699 
	C108.236366,52.619083 105.590996,48.190464 102.885666,43.406845 
	C106.243546,43.033836 109.661385,43.015823 113.540680,42.999699 
	C114.002136,43.001587 114.000000,43.000000 113.949219,43.413956 
	C113.616371,48.215641 113.334297,52.603378 112.690086,56.996902 
	C111.845879,57.017696 111.363815,57.032700 110.881744,57.047699 
z"/>
<path fill="#E6E8E9" opacity="1.000000" stroke="none" 
	d="
M113.052223,56.991112 
	C113.334297,52.603378 113.616371,48.215641 113.950256,43.415459 
	C115.385674,43.007763 116.769295,43.012520 118.609634,43.359062 
	C120.075623,44.873440 121.084892,46.046028 122.094162,47.218620 
	C120.379921,50.362038 118.665680,53.505455 116.302902,56.852470 
	C114.786987,57.034420 113.919609,57.012768 113.052223,56.991112 
z"/>
<path fill="#EAEBEB" opacity="1.000000" stroke="none" 
	d="
M132.095093,29.178923 
	C131.575577,31.055481 130.604279,32.863186 129.346466,34.845093 
	C128.705841,33.284359 128.351746,31.549416 127.998520,29.406975 
	C129.214035,29.036343 130.428665,29.073206 132.095093,29.178923 
z"/>
<path fill="#F1F2F3" opacity="1.000000" stroke="none" 
	d="
M122.340576,47.011879 
	C121.084892,46.046028 120.075623,44.873440 119.024750,43.361359 
	C120.401329,43.230900 121.819504,43.439938 123.566360,43.798996 
	C123.459023,44.901058 123.023010,45.853100 122.340576,47.011879 
z"/>
<path fill="#FEFEFE" opacity="1.000000" stroke="none" 
	d="
M142.002075,197.997925 
	C137.645279,197.996719 133.286133,197.997864 128.461975,197.997482 
	C127.996971,197.995941 128.000000,198.000000 127.989960,197.551208 
	C127.358444,194.072937 126.736977,191.043457 126.115509,188.013962 
	C126.680016,186.855759 127.244522,185.697540 128.473740,184.284119 
	C133.426941,184.016495 137.715408,184.004074 141.999710,184.457214 
	C141.995529,189.283340 141.995529,193.643906 141.995529,198.004471 
	C141.995529,198.004471 141.999725,198.000275 142.002075,197.997925 
z"/>
<path fill="#EDEDED" opacity="1.000000" stroke="none" 
	d="
M99.004379,197.997864 
	C94.647705,197.996552 90.286552,197.997116 85.460175,197.996307 
	C84.994942,197.994919 85.000343,198.000381 85.004150,197.537506 
	C85.004196,192.715820 85.000420,188.356995 85.459290,183.999390 
	C90.016273,183.578690 94.110603,183.156769 98.204933,182.734848 
	C98.514221,183.146530 98.823509,183.558212 99.092560,184.744766 
	C99.035744,189.681305 99.019173,193.842972 99.002609,198.004639 
	C99.002609,198.004639 98.999908,197.999756 99.004379,197.997864 
z"/>
<path fill="#ECEEED" opacity="1.000000" stroke="none" 
	d="
M141.896545,160.618881 
	C142.643463,159.178329 143.390381,157.737793 144.862305,156.128555 
	C149.059494,155.974625 152.531708,155.989365 156.001572,156.001678 
	C155.999237,155.999237 155.993820,155.993927 155.993103,156.459198 
	C155.996140,161.284195 155.999893,165.643921 155.538757,169.999908 
	C150.712769,169.996048 146.351639,169.995972 141.995270,169.997650 
	C142.000000,169.999390 141.992508,170.000610 141.996552,169.541382 
	C141.965927,166.261078 141.931229,163.439972 141.896545,160.618881 
z"/>
<path fill="#FEFEFE" opacity="1.000000" stroke="none" 
	d="
M70.996277,156.003662 
	C74.420601,155.989166 77.844933,155.974655 81.743309,155.931732 
	C83.203293,157.228989 84.189224,158.554688 85.151733,160.679642 
	C85.086311,164.318817 85.044304,167.158722 85.001144,169.999329 
	C85.000000,170.000000 85.002617,169.995453 84.537628,169.996475 
	C79.713257,170.000290 75.353867,170.003082 70.996643,169.540588 
	C71.000435,164.715637 71.002068,160.355988 71.001953,155.998169 
	C71.000206,156.000000 70.996277,156.003662 70.996277,156.003662 
z"/>
<path fill="#FAFCFC" opacity="1.000000" stroke="none" 
	d="
M98.132111,182.395325 
	C94.110603,183.156769 90.016273,183.578690 85.461075,184.000305 
	C85.000206,184.000000 85.001907,184.003372 85.002167,183.538361 
	C85.002495,178.714066 85.002556,174.354752 85.002617,169.995453 
	C85.002617,169.995453 85.000000,170.000000 85.424507,169.992126 
	C87.540138,169.995865 89.231270,170.007477 90.922394,170.019104 
	C93.301353,174.031342 95.680313,178.043579 98.132111,182.395325 
z"/>
<path fill="#E8EDEB" opacity="1.000000" stroke="none" 
	d="
M142.003891,183.991638 
	C137.715408,184.004074 133.426941,184.016495 128.693985,184.040436 
	C130.972015,179.153000 133.694519,174.254074 136.929047,169.431503 
	C138.958191,169.672104 140.475357,169.836365 141.992508,170.000610 
	C141.992508,170.000610 142.000000,169.999390 141.993484,170.462738 
	C141.988510,175.285355 141.990051,179.644623 141.995636,184.002350 
	C141.999649,184.000824 142.003891,183.991638 142.003891,183.991638 
z"/>
<path fill="#FAFDFC" opacity="1.000000" stroke="none" 
	d="
M156.003906,156.004120 
	C152.531708,155.989365 149.059494,155.974625 145.096710,155.931793 
	C147.453156,150.900314 150.300186,145.896927 153.598389,140.998138 
	C154.700317,141.401291 155.351074,141.699844 156.001831,141.998398 
	C156.001831,141.998398 155.999390,142.000000 155.998840,142.462494 
	C156.000168,147.284714 156.002029,151.644409 156.003906,156.004120 
z"/>
<path fill="#F6F9F8" opacity="1.000000" stroke="none" 
	d="
M99.447166,198.006439 
	C99.019173,193.842972 99.035744,189.681305 99.075302,185.012039 
	C101.706306,188.768219 104.314331,193.032013 106.969910,197.645828 
	C104.642212,197.999985 102.266968,198.004105 99.447166,198.006439 
z"/>
<path fill="#E2ECE7" opacity="1.000000" stroke="none" 
	d="
M125.817001,188.180969 
	C126.736977,191.043457 127.358444,194.072937 127.988586,197.550293 
	C125.663452,198.004257 123.329651,198.010345 120.562172,198.023529 
	C121.925156,194.803070 123.721825,191.575516 125.817001,188.180969 
z"/>
<path fill="#E2ECE7" opacity="1.000000" stroke="none" 
	d="
M90.882507,169.674164 
	C89.231270,170.007477 87.540138,169.995865 85.425659,169.991455 
	C85.044304,167.158722 85.086311,164.318817 85.218277,160.992615 
	C87.153023,163.447281 88.997818,166.388245 90.882507,169.674164 
z"/>
<path fill="#F4F7F6" opacity="1.000000" stroke="none" 
	d="
M141.996552,169.541397 
	C140.475357,169.836365 138.958191,169.672104 137.194672,169.217133 
	C138.411423,166.304230 139.874542,163.682037 141.617096,160.839355 
	C141.931229,163.439972 141.965927,166.261078 141.996552,169.541397 
z"/>
<path fill="#F3F5F4" opacity="1.000000" stroke="none" 
	d="
M156.001419,141.547363 
	C155.351074,141.699844 154.700317,141.401291 153.868073,140.771729 
	C154.226990,139.285141 154.767395,138.129578 155.564209,136.756622 
	C155.880753,138.058289 155.940887,139.577316 156.001419,141.547363 
z"/>
<path fill="#E8EDEB" opacity="1.000000" stroke="none" 
	d="
M34.050030,71.623444 
	C33.180344,71.450676 32.245182,70.930550 31.172680,70.117767 
	C32.018410,70.308769 33.001484,70.792427 34.050030,71.623444 
z"/>
<path fill="#E8EDEB" opacity="1.000000" stroke="none" 
	d="
M41.054901,83.686951 
	C40.741467,83.533089 40.391403,83.086632 40.013542,82.341064 
	C40.329918,82.492752 40.674095,82.943565 41.054901,83.686951 
z"/>
<path fill="#E8EDEB" opacity="1.000000" stroke="none" 
	d="
M160.605377,127.924065 
	C160.719009,128.122513 160.595871,128.430984 160.250977,128.867645 
	C160.142349,128.675247 160.255478,128.354660 160.605377,127.924065 
z"/>
<path fill="#ECEEED" opacity="1.000000" stroke="none" 
	d="
M186.612854,82.795700 
	C186.723465,82.978844 186.611389,83.329041 186.264954,83.836273 
	C186.150452,83.649780 186.270309,83.306267 186.612854,82.795700 
z"/>
<path fill="#FAFDFC" opacity="1.000000" stroke="none" 
	d="
M197.843460,70.787857 
	C198.004852,71.008873 198.000107,71.504784 197.995728,71.752716 
	C197.484039,71.572983 196.976746,71.145309 196.469437,70.717636 
	C196.873642,70.667374 197.277863,70.617104 197.843460,70.787857 
z"/>
<path fill="#FEFEFE" opacity="1.000000" stroke="none" 
	d="
M28.996895,142.460190 
	C33.354889,141.994125 37.714878,141.993225 42.540127,141.993561 
	C43.004780,146.354980 43.004173,150.715164 42.539219,155.537689 
	C37.715145,155.998596 33.355423,155.997162 28.995703,155.995728 
	C28.995703,155.995728 28.999777,155.999741 29.002037,156.002014 
	C29.002497,151.644638 29.000694,147.284988 28.996895,142.460190 
z"/>
<path fill="#EDEDED" opacity="1.000000" stroke="none" 
	d="
M197.997192,169.997406 
	C197.995224,174.354538 197.996445,178.714645 197.996231,183.539978 
	C197.994781,184.005234 198.000381,183.999619 197.537567,183.998627 
	C192.714828,183.996750 188.354904,183.995850 183.997482,183.997482 
	C184.000000,184.000000 184.005051,184.005051 184.002792,183.539886 
	C183.999069,178.715103 183.997589,174.355515 184.461029,169.996658 
	C189.285812,170.000290 193.645706,170.003174 198.005585,170.006058 
	C198.005585,170.006058 198.000412,170.000366 197.997192,169.997406 
z"/>
<path fill="#EDEDED" opacity="1.000000" stroke="none" 
	d="
M28.997627,156.460831 
	C33.355423,155.997162 37.715145,155.998596 42.540119,156.002686 
	C43.005371,156.005341 42.999641,155.999619 42.999702,156.462402 
	C43.001022,161.284668 43.002277,165.644165 42.538658,170.000153 
	C37.713894,169.995941 33.354000,169.995255 28.994106,169.994568 
	C28.994106,169.994568 28.999561,169.999573 29.002474,170.002716 
	C29.003443,165.645889 29.001497,161.285919 28.997627,156.460831 
z"/>
<path fill="#FEFEFE" opacity="1.000000" stroke="none" 
	d="
M28.996305,170.459778 
	C33.354000,169.995255 37.713894,169.995941 42.536835,169.998322 
	C42.999882,170.000000 42.996418,169.996506 42.998180,170.461517 
	C42.998219,175.286102 42.996490,179.645660 42.997208,184.002808 
	C42.999645,184.000381 43.005177,183.994812 42.540192,183.995926 
	C37.715096,183.996384 33.354988,183.995743 28.994879,183.995102 
	C28.994879,183.995102 28.999681,183.999603 29.002270,184.002350 
	C29.002739,179.645065 29.000622,175.285034 28.996305,170.459778 
z"/>
<path fill="#FEFEFE" opacity="1.000000" stroke="none" 
	d="
M198.004059,169.540787 
	C193.645706,170.003174 189.285812,170.000290 184.463013,169.998779 
	C184.000107,170.000168 184.004242,170.004013 184.001877,169.538940 
	C184.000992,164.714676 184.002472,160.355484 184.001968,155.998138 
	C184.000000,156.000000 183.996262,156.003998 183.996262,156.003998 
	C188.355850,156.000626 192.715454,155.997253 197.540344,155.994141 
	C198.004608,160.354767 198.003571,164.715134 198.004059,169.540787 
z"/>
<path fill="#FEFEFE" opacity="1.000000" stroke="none" 
	d="
M84.998428,183.999084 
	C85.000420,188.356995 85.004196,192.715820 85.006516,197.539871 
	C80.645348,198.003021 76.285629,198.000946 71.460754,197.997253 
	C70.995590,197.995636 71.000206,198.000290 71.001648,197.537140 
	C71.000282,192.714218 70.997459,188.354446 71.459892,183.995819 
	C76.284065,183.999115 80.642982,184.001251 85.001907,184.003387 
	C85.001907,184.003372 85.000206,184.000000 84.998428,183.999084 
z"/>
<path fill="#EDEDED" opacity="1.000000" stroke="none" 
	d="
M28.997082,184.460266 
	C33.354988,183.995743 37.715096,183.996384 42.538811,184.461166 
	C42.999874,189.285263 42.997334,193.645218 42.994793,198.005188 
	C42.994793,198.005188 42.999630,198.000397 43.002411,197.997620 
	C38.645336,197.996597 34.285477,197.998352 29.460428,198.002441 
	C28.996586,193.644974 28.997936,189.285187 28.997082,184.460266 
z"/>
<path fill="#FEFEFE" opacity="1.000000" stroke="none" 
	d="
M43.459976,198.003204 
	C42.997334,193.645218 42.999874,189.285263 43.003796,184.460052 
	C43.005177,183.994812 42.999645,184.000381 43.462448,184.000641 
	C48.285328,183.998627 52.645397,183.996353 57.006039,184.459106 
	C57.003101,189.284042 56.999596,193.643936 56.996090,198.003845 
	C56.996090,198.003845 56.999779,198.000000 57.001793,197.998138 
	C52.644257,197.997925 48.284706,197.999557 43.459976,198.003204 
z"/>
<path fill="#EDEDED" opacity="1.000000" stroke="none" 
	d="
M57.461147,198.001648 
	C56.999596,193.643936 57.003101,189.284042 57.003090,184.462280 
	C56.999569,184.000412 56.994091,184.005432 57.459351,184.003662 
	C62.284855,184.003036 66.645103,184.004181 71.002853,184.002869 
	C71.000366,184.000381 70.994644,183.994675 70.994644,183.994675 
	C70.997459,188.354446 71.000282,192.714218 71.003738,197.539185 
	C66.644981,198.002731 62.285595,198.001083 57.461147,198.001648 
z"/>
<path fill="#EDEDED" opacity="1.000000" stroke="none" 
	d="
M142.460632,198.002518 
	C141.995529,193.643906 141.995529,189.283340 141.999710,184.457214 
	C142.003891,183.991638 141.999649,184.000824 142.461212,184.000229 
	C147.283188,183.998520 151.643600,183.997391 156.000214,184.461151 
	C155.995758,189.285904 155.995071,193.645782 155.994385,198.005646 
	C155.994385,198.005646 155.999588,198.000412 156.002594,197.997421 
	C151.645645,197.996475 147.285706,197.998520 142.460632,198.002518 
z"/>
<path fill="#FEFEFE" opacity="1.000000" stroke="none" 
	d="
M156.459610,198.003387 
	C155.995071,193.645782 155.995758,189.285904 155.998215,184.463013 
	C156.000000,184.000000 155.996262,184.003952 156.461334,184.002151 
	C161.285629,184.001648 165.644821,184.002945 170.002106,184.002197 
	C170.000168,184.000122 169.995880,183.996109 169.996643,184.460999 
	C169.997177,189.285034 169.996948,193.644150 169.996735,198.003281 
	C169.996735,198.003281 170.000000,198.000000 170.001770,197.998230 
	C165.643967,197.998032 161.284409,197.999588 156.459610,198.003387 
z"/>
<path fill="#EDEDED" opacity="1.000000" stroke="none" 
	d="
M170.461731,198.001648 
	C169.996948,193.644150 169.997177,189.285034 170.461761,184.461945 
	C175.285767,184.000351 179.645401,184.002701 184.005051,184.005051 
	C184.005051,184.005051 184.000000,184.000000 183.999023,184.462708 
	C183.996918,189.285400 183.995789,193.645370 183.994659,198.005341 
	C183.994659,198.005341 183.999588,198.000412 184.002441,197.997574 
	C179.645767,197.996490 175.286240,197.998245 170.461731,198.001648 
z"/>
<path fill="#FEFEFE" opacity="1.000000" stroke="none" 
	d="
M184.459869,198.003311 
	C183.995789,193.645370 183.996918,189.285400 183.996490,184.460205 
	C188.354904,183.995850 192.714828,183.996750 197.540009,183.996185 
	C198.004013,188.354767 198.002762,192.714813 198.003448,197.540115 
	C193.645264,198.003998 189.285172,198.002640 184.459869,198.003311 
z"/>
<path fill="#FEFEFE" opacity="1.000000" stroke="none" 
	d="
M57.001678,156.001831 
	C57.001175,151.643143 57.000675,147.284439 56.997803,142.460571 
	C57.324043,141.994675 57.652660,141.993515 57.981277,141.993256 
	C71.016037,141.982697 71.016037,141.982712 71.000031,155.537231 
	C70.996277,156.003662 71.000206,156.000000 70.536880,155.998840 
	C65.715096,155.997833 61.356632,155.998001 56.999084,155.999084 
	C57.000000,156.000000 57.001678,156.001831 57.001678,156.001831 
z"/>
<path fill="#FEFEFE" opacity="1.000000" stroke="none" 
	d="
M43.001709,170.001831 
	C43.002277,165.644165 43.001022,161.284668 42.997200,156.459915 
	C47.353748,155.994797 51.712868,155.994934 56.536835,155.998444 
	C57.001678,156.001831 57.000000,156.000000 57.002357,156.463989 
	C57.004845,161.287231 57.004967,165.646515 56.539871,170.003174 
	C51.715240,169.999207 47.355831,169.997849 42.996418,169.996490 
	C42.996418,169.996506 42.999882,170.000000 43.001709,170.001831 
z"/>
<path fill="#EDEDED" opacity="1.000000" stroke="none" 
	d="
M156.001572,156.001678 
	C156.002029,151.644409 156.000168,147.284714 155.997375,142.459717 
	C160.355972,141.996246 164.715515,141.998047 169.540314,142.002716 
	C170.005569,142.005569 169.999405,141.999405 169.995758,142.462006 
	C169.995956,147.284286 169.999817,151.643967 169.538589,155.999695 
	C164.713623,155.995117 160.353714,155.994522 155.993820,155.993927 
	C155.993820,155.993927 155.999237,155.999237 156.001572,156.001678 
z"/>
<path fill="#FEFEFE" opacity="1.000000" stroke="none" 
	d="
M170.003662,156.003662 
	C169.999817,151.643967 169.995956,147.284286 169.992981,142.459229 
	C174.354034,141.993332 178.714218,141.992798 183.539581,141.993515 
	C184.002823,146.354446 184.000870,150.714127 183.997589,155.538895 
	C183.996262,156.003998 184.000000,156.000000 183.536880,155.998703 
	C178.714615,155.997055 174.355484,155.996689 169.998169,155.998169 
	C170.000000,156.000000 170.003662,156.003662 170.003662,156.003662 
z"/>
<path fill="#F1F2F3" opacity="1.000000" stroke="none" 
	d="
M112.690086,56.996902 
	C113.919609,57.012768 114.786987,57.034420 116.089096,57.090111 
	C115.703682,58.657429 114.883545,60.190704 113.775040,62.263096 
	C112.624580,60.368507 111.818619,59.041229 110.947197,57.380825 
	C111.363815,57.032700 111.845879,57.017696 112.690086,56.996902 
z"/>
<path fill="#FEFEFE" opacity="1.000000" stroke="none" 
	d="
M156.001999,183.998138 
	C151.643600,183.997391 147.283188,183.998520 142.457199,184.001755 
	C141.990051,179.644623 141.988510,175.285355 141.988739,170.460999 
	C146.351639,169.995972 150.712769,169.996048 155.536942,169.998077 
	C156.000000,170.000000 155.996338,169.996338 155.997070,170.461411 
	C155.997284,175.285645 155.996780,179.644791 155.996262,184.003952 
	C155.996262,184.003952 156.000000,184.000000 156.001999,183.998138 
z"/>
<path fill="#FEFEFE" opacity="1.000000" stroke="none" 
	d="
M155.993103,156.459198 
	C160.353714,155.994522 164.713623,155.995117 169.538589,155.999695 
	C170.003662,156.003662 170.000000,156.000000 169.998901,156.463242 
	C169.997925,161.284927 169.998047,165.643387 169.999084,170.000916 
	C170.000000,170.000000 170.001831,169.998169 169.536987,169.998749 
	C164.713547,169.998322 160.354935,169.997330 155.996338,169.996338 
	C155.996338,169.996338 156.000000,170.000000 156.001831,170.001831 
	C155.999893,165.643921 155.996140,161.284195 155.993103,156.459198 
z"/>
<path fill="#EDEDED" opacity="1.000000" stroke="none" 
	d="
M85.002167,183.538376 
	C80.642982,184.001251 76.284065,183.999115 71.459892,183.995819 
	C70.994644,183.994675 71.000366,184.000381 71.002960,183.537598 
	C71.005699,178.714676 71.005829,174.354523 71.003220,169.996979 
	C71.000481,169.999603 70.994476,170.005890 70.994476,170.005890 
	C75.353867,170.003082 79.713257,170.000290 84.537628,169.996475 
	C85.002556,174.354752 85.002495,178.714066 85.002167,183.538376 
z"/>
<path fill="#EEEEEE" opacity="1.000000" stroke="none" 
	d="
M57.005093,170.005783 
	C57.004967,165.646515 57.004845,161.287231 57.001442,156.463074 
	C61.356632,155.998001 65.715096,155.997833 70.538635,155.997009 
	C71.002068,160.355988 71.000435,164.715637 70.996643,169.540588 
	C70.994476,170.005890 71.000481,169.999603 70.537903,169.996490 
	C65.714943,169.993881 61.354557,169.994370 56.996895,169.997223 
	C56.999615,169.999588 57.005093,170.005783 57.005093,170.005783 
z"/>
<path fill="#FEFEFE" opacity="1.000000" stroke="none" 
	d="
M184.002792,183.539886 
	C179.645401,184.002701 175.285767,184.000351 170.460999,183.997055 
	C169.995880,183.996109 170.000168,184.000122 169.998566,183.537079 
	C169.998581,178.715408 170.000198,174.356781 170.001831,169.998169 
	C170.001831,169.998169 170.000000,170.000000 170.463943,169.997528 
	C175.286667,169.998047 179.645462,170.001022 184.004242,170.004013 
	C184.004242,170.004013 184.000107,170.000168 183.998108,169.998047 
	C183.997589,174.355515 183.999069,178.715103 184.002792,183.539886 
z"/>
<path fill="#EDEDED" opacity="1.000000" stroke="none" 
	d="
M42.998180,170.461517 
	C47.355831,169.997849 51.715240,169.999207 56.539871,170.003174 
	C57.005093,170.005783 56.999615,169.999588 56.999512,170.462463 
	C56.997635,175.285385 56.995861,179.645401 56.994091,184.005432 
	C56.994091,184.005432 56.999569,184.000412 57.002518,183.997253 
	C52.645397,183.996353 48.285328,183.998627 43.460011,184.003052 
	C42.996490,179.645660 42.998219,175.286102 42.998180,170.461517 
z"/>
<path fill="#EDEDED" opacity="1.000000" stroke="none" 
	d="
M184.001877,169.538940 
	C179.645462,170.001022 175.286667,169.998047 170.463028,169.998444 
	C169.998047,165.643387 169.997925,161.284927 169.997070,156.461411 
	C174.355484,155.996689 178.714615,155.997055 183.538849,155.996841 
	C184.002472,160.355484 184.000992,164.714676 184.001877,169.538940 
z"/>
<path fill="#FEFEFE" opacity="1.000000" stroke="none" 
	d="
M57.459351,184.003662 
	C56.995861,179.645401 56.997635,175.285385 56.996792,170.460114 
	C61.354557,169.994370 65.714943,169.993881 70.540642,169.993881 
	C71.005829,174.354523 71.005699,178.714676 71.005455,183.540085 
	C66.645103,184.004181 62.284855,184.003036 57.459351,184.003662 
z"/>
<path fill="#EDEDED" opacity="1.000000" stroke="none" 
	d="
M169.536987,169.998749 
	C170.000198,174.356781 169.998581,178.715408 170.000488,183.539139 
	C165.644821,184.002945 161.285629,184.001648 156.461334,184.002151 
	C155.996780,179.644791 155.997284,175.285645 155.997070,170.461411 
	C160.354935,169.997330 164.713547,169.998322 169.536987,169.998749 
z"/>
</svg>