<svg version="1.1" id="Layer_1" xmlns="http://www.w3.org/2000/svg" xmlns:xlink="http://www.w3.org/1999/xlink" x="0px" y="0px"
	 width="100%" viewBox="0 0 241 209" enable-background="new 0 0 241 209" xml:space="preserve">
<path fill="#41B883" opacity="1.000000" stroke="none" 
	d="
M49.000000,1.000000 
	C49.000000,1.000000 49.500000,1.000000 49.750252,1.362390 
	C50.565063,2.922857 51.047020,4.168543 51.706146,5.312110 
	C73.483810,43.095978 95.276466,80.871193 117.075287,118.642860 
	C118.422432,120.977097 119.837776,123.271980 121.476158,126.011116 
	C122.408440,124.585564 122.889793,123.921936 123.297447,123.215782 
	C143.187012,88.762108 163.100525,54.322186 182.926086,19.831713 
	C186.472153,13.662595 189.651382,7.282618 193.000000,1.000000 
	C193.000000,1.000000 193.500000,1.000000 194.094727,1.228658 
	C196.661606,1.637354 198.633148,1.965695 200.605988,1.973523 
	C214.094574,2.027044 227.583450,2.013279 241.010620,2.369394 
	C201.894730,70.467186 162.844254,138.218964 123.756004,205.948959 
	C123.054268,207.164871 121.900505,208.119919 120.836380,208.864471 
	C91.809616,158.448181 62.877651,108.379356 34.012318,58.272141 
	C23.237444,39.568069 12.618120,20.774395 2.401131,2.014739 
	C16.328541,2.004378 29.782944,2.040261 43.236549,1.953026 
	C45.159679,1.940556 47.078945,1.332445 49.000000,1.000000 
z"/>
<path fill="#FFFFFF" opacity="1.000000" stroke="none" 
	d="
M120.957657,209.196671 
	C121.900505,208.119919 123.054268,207.164871 123.756004,205.948959 
	C162.844254,138.218964 201.894730,70.467186 241.242188,2.348449 
	C241.535385,1.979315 242.000000,2.000000 242.000000,2.000000 
	C242.000000,71.241035 242.000000,140.482071 242.000000,210.000000 
	C201.979538,210.000000 161.958420,210.000000 121.458549,209.799133 
	C120.979782,209.598282 120.957657,209.196671 120.957657,209.196671 
z"/>
<path fill="#FFFFFF" opacity="1.000000" stroke="none" 
	d="
M120.836380,208.864471 
	C120.957657,209.196671 120.979782,209.598282 120.989891,209.799133 
	C81.053406,210.000000 41.106812,210.000000 1.000000,210.000000 
	C1.000000,140.979187 1.000000,71.958252 1.232332,2.458375 
	C1.464663,1.979435 1.927868,2.021577 1.927868,2.021577 
	C12.618120,20.774395 23.237444,39.568069 34.012318,58.272141 
	C62.877651,108.379356 91.809616,158.448181 120.836380,208.864471 
z"/>
<path fill="#344A5E" opacity="1.000000" stroke="none" 
	d="
M192.531342,1.000000 
	C189.651382,7.282618 186.472153,13.662595 182.926086,19.831713 
	C163.100525,54.322186 143.187012,88.762108 123.297447,123.215782 
	C122.889793,123.921936 122.408440,124.585564 121.476158,126.011116 
	C119.837776,123.271980 118.422432,120.977097 117.075287,118.642860 
	C95.276466,80.871193 73.483810,43.095978 51.706146,5.312110 
	C51.047020,4.168543 50.565063,2.922857 50.000252,1.362390 
	C64.354225,1.000000 78.708458,1.000000 93.582993,1.349526 
	C103.142738,17.369589 112.182190,33.040127 121.583801,49.338520 
	C131.015839,32.708538 140.007919,16.854269 149.000000,0.999999 
	C163.354233,1.000000 177.708450,1.000000 192.531342,1.000000 
z"/>
<path fill="#FDFEFE" opacity="1.000000" stroke="none" 
	d="
M148.531342,0.999999 
	C140.007919,16.854269 131.015839,32.708538 121.583801,49.338520 
	C112.182190,33.040127 103.142738,17.369589 94.051651,1.349526 
	C112.020897,1.000000 130.041794,1.000000 148.531342,0.999999 
z"/>
<path fill="#4EBC8C" opacity="1.000000" stroke="none" 
	d="
M2.401131,2.014739 
	C1.927868,2.021577 1.464663,1.979435 1.232332,1.989717 
	C1.987978,1.666667 2.974744,1.047142 3.964114,1.042954 
	C18.663435,0.980737 33.363098,1.000000 48.531342,1.000000 
	C47.078945,1.332445 45.159679,1.940556 43.236549,1.953026 
	C29.782944,2.040261 16.328541,2.004378 2.401131,2.014739 
z"/>
<path fill="#4EBC8C" opacity="1.000000" stroke="none" 
	d="
M242.000000,1.500000 
	C242.000000,2.000000 241.535385,1.979315 241.303802,2.000260 
	C227.583450,2.013279 214.094574,2.027044 200.605988,1.973523 
	C198.633148,1.965695 196.661606,1.637354 194.344727,1.228658 
	C210.000000,1.000000 226.000000,1.000000 242.000000,1.500000 
z"/>
</svg>